<svg width="44" height="44" viewBox="0 0 44 44" fill="none" xmlns="http://www.w3.org/2000/svg">
<path d="M38.5 33.0069V30.2569C38.494 26.1217 36.9368 22.1393 34.1362 19.0968C31.3356 16.0544 27.4955 14.1734 23.375 13.8256V11.0069H27.5V8.25687H16.5V11.0069H20.625V13.8256C16.5045 14.1734 12.6644 16.0544 9.86379 19.0968C7.06322 22.1393 5.50601 26.1217 5.5 30.2569V33.0069H2.75V35.7569H41.25V33.0069H38.5ZM22 16.5069C25.1682 16.5112 28.238 17.6077 30.692 19.6114C33.1461 21.6151 34.8343 24.4036 35.4723 27.5069H8.52775C9.16568 24.4036 10.8539 21.6151 13.308 19.6114C15.762 17.6077 18.8318 16.5112 22 16.5069ZM8.25 30.2569H35.75V33.0069H8.25V30.2569Z" fill="#DB8B5A"/>
</svg>
