<svg width="44" height="44" viewBox="0 0 44 44" fill="none" xmlns="http://www.w3.org/2000/svg">
<path d="M37.1264 38.5C36.9129 38.5002 36.7023 38.4506 36.5113 38.3551C36.3204 38.2596 36.1543 38.1209 36.0264 37.95L34.9058 36.4567C33.844 35.0413 33.0982 33.4146 32.7187 31.6863C32.3392 29.9581 32.3347 28.1686 32.7057 26.4385L34.7311 16.984C35.0198 15.6383 35.0164 14.2463 34.7211 12.9021C34.4257 11.5579 33.8454 10.2926 33.0192 9.19187L31.9 7.7C31.7917 7.55554 31.7128 7.39117 31.668 7.21625C31.6232 7.04133 31.6133 6.8593 31.6388 6.68054C31.6644 6.50179 31.7249 6.32982 31.8168 6.17444C31.9088 6.01907 32.0305 5.88334 32.175 5.775C32.3195 5.66666 32.4838 5.58783 32.6588 5.54302C32.8337 5.4982 33.0157 5.48828 33.1945 5.51382C33.3732 5.53935 33.5452 5.59985 33.7006 5.69185C33.8559 5.78384 33.9917 5.90554 34.1 6.05L35.2206 7.54325C36.2822 8.95853 37.0279 10.585 37.4074 12.313C37.7869 14.041 37.7914 15.8303 37.4206 17.5601L35.3939 27.0146C35.1052 28.3603 35.1086 29.7523 35.4039 31.0965C35.6993 32.4408 36.2796 33.706 37.1058 34.8067L38.225 36.3C38.3781 36.5042 38.4714 36.747 38.4944 37.0012C38.5174 37.2554 38.4692 37.511 38.3551 37.7393C38.2411 37.9676 38.0658 38.1598 37.8488 38.2941C37.6317 38.4284 37.3816 38.4997 37.1264 38.5ZM30.2514 38.5C30.0379 38.5002 29.8273 38.4506 29.6363 38.3551C29.4454 38.2596 29.2793 38.1209 29.1514 37.95L28.0308 36.4567C26.969 35.0413 26.2232 33.4146 25.8437 31.6863C25.4642 29.9581 25.4597 28.1686 25.8307 26.4385L27.8561 16.984C28.1448 15.6383 28.1414 14.2463 27.8461 12.9021C27.5507 11.5579 26.9704 10.2926 26.1442 9.19187L25.025 7.7C24.9167 7.55554 24.8378 7.39117 24.793 7.21625C24.7482 7.04133 24.7383 6.8593 24.7638 6.68054C24.7894 6.50179 24.8499 6.32982 24.9418 6.17444C25.0338 6.01907 25.1555 5.88334 25.3 5.775C25.4445 5.66666 25.6088 5.58783 25.7838 5.54302C25.9587 5.4982 26.1407 5.48828 26.3195 5.51382C26.4982 5.53935 26.6702 5.59985 26.8256 5.69185C26.9809 5.78384 27.1167 5.90554 27.225 6.05L28.3456 7.54325C29.4072 8.95853 30.1529 10.585 30.5324 12.313C30.9119 14.041 30.9164 15.8303 30.5456 17.5601L28.5189 27.0146C28.2302 28.3603 28.2336 29.7523 28.5289 31.0965C28.8243 32.4408 29.4046 33.706 30.2308 34.8067L31.35 36.3C31.5031 36.5042 31.5964 36.747 31.6194 37.0012C31.6424 37.2554 31.5942 37.511 31.4801 37.7393C31.3661 37.9676 31.1908 38.1598 30.9738 38.2941C30.7567 38.4284 30.5066 38.4997 30.2514 38.5ZM23.3764 38.5C23.1629 38.5002 22.9523 38.4506 22.7613 38.3551C22.5704 38.2596 22.4043 38.1209 22.2764 37.95L21.1558 36.4567C20.094 35.0413 19.3482 33.4146 18.9687 31.6863C18.5892 29.9581 18.5848 28.1686 18.9558 26.4385L20.9811 16.984C21.2698 15.6383 21.2664 14.2463 20.9711 12.9021C20.6757 11.5579 20.0954 10.2926 19.2692 9.19187L18.15 7.7C18.0417 7.55554 17.9628 7.39117 17.918 7.21625C17.8732 7.04133 17.8633 6.8593 17.8888 6.68054C17.9144 6.50179 17.9748 6.32982 18.0668 6.17444C18.1588 6.01907 18.2805 5.88334 18.425 5.775C18.5695 5.66666 18.7338 5.58783 18.9088 5.54302C19.0837 5.4982 19.2657 5.48828 19.4445 5.51382C19.6232 5.53935 19.7952 5.59985 19.9506 5.69185C20.1059 5.78384 20.2417 5.90554 20.35 6.05L21.4692 7.54325C22.531 8.95842 23.277 10.5849 23.6567 12.3128C24.0365 14.0408 24.0412 15.8302 23.6706 17.5601L21.6439 27.0146C21.3552 28.3603 21.3586 29.7523 21.6539 31.0965C21.9493 32.4408 22.5296 33.706 23.3558 34.8067L24.475 36.3C24.6281 36.5042 24.7214 36.747 24.7444 37.0012C24.7674 37.2554 24.7192 37.511 24.6051 37.7393C24.4911 37.9676 24.3158 38.1598 24.0988 38.2941C23.8817 38.4284 23.6316 38.4997 23.3764 38.5ZM16.5014 38.5C16.2879 38.5002 16.0773 38.4506 15.8863 38.3551C15.6954 38.2596 15.5293 38.1209 15.4014 37.95L14.2807 36.4567C13.219 35.0413 12.4732 33.4146 12.0937 31.6863C11.7142 29.9581 11.7098 28.1686 12.0808 26.4385L14.1061 16.984C14.3948 15.6383 14.3914 14.2463 14.0961 12.9021C13.8007 11.5579 13.2204 10.2926 12.3942 9.19187L11.275 7.7C11.1667 7.55554 11.0878 7.39117 11.043 7.21625C10.9982 7.04133 10.9883 6.8593 11.0138 6.68054C11.0394 6.50179 11.0998 6.32982 11.1918 6.17444C11.2838 6.01907 11.4055 5.88334 11.55 5.775C11.6945 5.66666 11.8588 5.58783 12.0338 5.54302C12.2087 5.4982 12.3907 5.48828 12.5695 5.51382C12.7482 5.53935 12.9202 5.59985 13.0756 5.69185C13.2309 5.78384 13.3667 5.90554 13.475 6.05L14.5956 7.54325C15.6572 8.95853 16.4029 10.585 16.7824 12.313C17.1619 14.041 17.1664 15.8303 16.7956 17.5601L14.7689 27.0146C14.4802 28.3603 14.4836 29.7523 14.7789 31.0965C15.0743 32.4408 15.6546 33.706 16.4808 34.8067L17.6 36.3C17.7531 36.5042 17.8464 36.747 17.8694 37.0012C17.8924 37.2554 17.8442 37.511 17.7301 37.7393C17.6161 37.9676 17.4408 38.1598 17.2238 38.2941C17.0067 38.4284 16.7566 38.4997 16.5014 38.5ZM9.62637 38.5C9.41264 38.5004 9.20177 38.4509 9.01055 38.3554C8.81933 38.2599 8.65307 38.1211 8.525 37.95L7.40438 36.4567C6.34262 35.0413 5.59682 33.4146 5.2173 31.6863C4.83778 29.9581 4.83338 28.1686 5.20438 26.4385L7.23112 16.984C7.51982 15.6383 7.51639 14.2463 7.22107 12.9021C6.92575 11.5579 6.34541 10.2926 5.51925 9.19187L4.4 7.7C4.29166 7.55554 4.21283 7.39117 4.16802 7.21625C4.12321 7.04133 4.11328 6.8593 4.13882 6.68054C4.19039 6.31954 4.38326 5.9938 4.675 5.775C4.96674 5.55619 5.33345 5.46224 5.69445 5.51382C6.05546 5.56539 6.3812 5.75826 6.6 6.05L7.72062 7.54325C8.78219 8.95853 9.52788 10.585 9.90739 12.313C10.2869 14.041 10.2914 15.8303 9.92063 17.5601L7.89388 27.0146C7.60518 28.3603 7.60861 29.7523 7.90393 31.0965C8.19925 32.4408 8.77959 33.706 9.60575 34.8067L10.725 36.3C10.8781 36.5042 10.9714 36.747 10.9944 37.0012C11.0174 37.2554 10.9692 37.511 10.8551 37.7393C10.7411 37.9676 10.5658 38.1598 10.3488 38.2941C10.1317 38.4284 9.88161 38.4997 9.62637 38.5Z" fill="#DB8B5A"/>
</svg>
