<svg width="44" height="44" viewBox="0 0 44 44" fill="none" xmlns="http://www.w3.org/2000/svg">
<path d="M32.913 20.4162C32.6331 17.3449 31.7001 14.369 30.1765 11.6877C28.6529 9.0064 26.5738 6.68166 24.0787 4.86922L21.6268 3.09375L19.3292 4.88039C16.9355 6.74145 14.9612 9.08657 13.5355 11.7626C12.1098 14.4386 11.2646 17.3853 11.0553 20.4102C10.1303 20.2358 9.1912 20.1481 8.25 20.1481H1.375V25.7812C1.375 34.1212 8.16002 40.9062 16.5 40.9062H27.5C35.84 40.9062 42.625 34.1212 42.625 25.7812V20.1481H35.75C34.798 20.1481 33.8482 20.2378 32.913 20.4162ZM21.0176 7.05117L21.6857 6.53125L22.466 7.09629C24.7163 8.73094 26.5777 10.8425 27.9171 13.28C29.2566 15.7176 30.041 18.4209 30.2144 21.1968C26.5781 22.6374 23.6364 25.4232 22 28.9756C20.3603 25.4166 17.4104 22.6276 13.7651 21.1897C13.8612 18.445 14.5608 15.7551 15.8143 13.3115C17.0678 10.8678 18.8443 8.73038 21.0176 7.05117ZM20.625 38.1562H16.5C9.67656 38.1562 4.125 32.6047 4.125 25.7812V22.8981H8.25C15.0734 22.8981 20.625 28.4497 20.625 35.2731V38.1562ZM39.875 25.7812C39.875 32.6047 34.3234 38.1562 27.5 38.1562H23.375V35.2731C23.375 28.4497 28.9266 22.8981 35.75 22.8981H39.875V25.7812Z" fill="#DB8B5A"/>
</svg>
