<svg width="44" height="44" viewBox="0 0 44 44" fill="none" xmlns="http://www.w3.org/2000/svg">
<path d="M40.2599 31.0664C39.4803 30.7026 38.5101 30.25 36.7318 30.25C34.9535 30.25 33.9833 30.7027 33.2038 31.0664C32.5351 31.3784 32.0069 31.625 30.8386 31.625C29.6703 31.625 29.1423 31.3785 28.4736 31.0664C27.694 30.7027 26.724 30.25 24.9457 30.25C23.1674 30.25 22.1973 30.7028 21.4179 31.0664C20.7492 31.3784 20.2211 31.625 19.0529 31.625C17.8848 31.625 17.3568 31.3785 16.6882 31.0664C15.9088 30.7027 14.9387 30.25 13.1605 30.25C11.3822 30.25 10.4121 30.7028 9.63265 31.0664C8.96397 31.3784 8.43588 31.625 7.26773 31.625C6.09959 31.625 5.5715 31.3785 4.90282 31.0664C4.12337 30.7028 3.15322 30.25 1.375 30.25V33C2.54315 33 3.07123 33.2465 3.73991 33.5586C4.51937 33.9223 5.48952 34.375 7.26773 34.375C9.04595 34.375 10.0161 33.9222 10.7956 33.5586C11.4642 33.2466 11.9923 33 13.1605 33C14.3286 33 14.8566 33.2465 15.5252 33.5586C16.3047 33.9223 17.2747 34.375 19.0529 34.375C20.8312 34.375 21.8013 33.9222 22.5808 33.5586C23.2494 33.2466 23.7776 33 24.9457 33C26.1137 33 26.642 33.2465 27.3107 33.5586C28.0902 33.9223 29.0603 34.375 30.8386 34.375C32.6169 34.375 33.5871 33.9223 34.3667 33.5586C35.0353 33.2466 35.5636 33 36.7318 33C37.9001 33 38.4283 33.2465 39.0969 33.5586C39.8765 33.9224 40.8467 34.375 42.625 34.375V31.625C41.4568 31.625 40.9285 31.3785 40.2599 31.0664ZM36.7318 38.5C34.9535 38.5 33.9833 38.9527 33.2038 39.3164C32.5351 39.6284 32.0069 39.875 30.8386 39.875C29.6703 39.875 29.1423 39.6285 28.4736 39.3164C27.694 38.9527 26.724 38.5 24.9457 38.5C23.1674 38.5 22.1973 38.9528 21.4179 39.3164C20.7492 39.6284 20.2211 39.875 19.0529 39.875C17.8848 39.875 17.3568 39.6285 16.6882 39.3164C15.9088 38.9527 14.9387 38.5 13.1605 38.5C11.3822 38.5 10.4121 38.9528 9.63265 39.3164C8.96397 39.6284 8.43588 39.875 7.26773 39.875C6.09959 39.875 5.5715 39.6285 4.90282 39.3164C4.12337 38.9528 3.15322 38.5 1.375 38.5V41.25C2.54315 41.25 3.07123 41.4965 3.73991 41.8086C4.51937 42.1723 5.48952 42.625 7.26773 42.625C9.04595 42.625 10.0161 42.1722 10.7956 41.8086C11.4642 41.4966 11.9923 41.25 13.1605 41.25C14.3286 41.25 14.8566 41.4965 15.5252 41.8086C16.3047 42.1723 17.2747 42.625 19.0529 42.625C20.8312 42.625 21.8013 42.1722 22.5808 41.8086C23.2494 41.4966 23.7776 41.25 24.9457 41.25C26.1137 41.25 26.642 41.4965 27.3107 41.8086C28.0902 42.1723 29.0603 42.625 30.8386 42.625C32.6169 42.625 33.5871 42.1723 34.3667 41.8086C35.0353 41.4966 35.5636 41.25 36.7318 41.25C37.9001 41.25 38.4283 41.4965 39.0969 41.8086C39.8765 42.1724 40.8467 42.625 42.625 42.625V39.875C41.4568 39.875 40.9285 39.6285 40.2599 39.3164C39.4803 38.9527 38.5101 38.5 36.7318 38.5ZM21.3125 23.375H33.6875V28.1875H36.4375V9.95827C36.4364 9.12365 36.6896 8.30851 37.1633 7.62137L41.4577 1.375H38.1204L34.8972 6.06341C34.1076 7.20867 33.6857 8.56724 33.6875 9.95827V13.75H21.3125V9.95827C21.3114 9.12365 21.5646 8.30851 22.0383 7.62137L26.3327 1.375H22.9954L19.7722 6.06341C18.9826 7.20867 18.5607 8.56724 18.5625 9.95827V28.1875H21.3125V23.375ZM21.3125 16.5H33.6875V20.625H21.3125V16.5Z" fill="#DB8B5A"/>
</svg>
