<svg width="44" height="44" viewBox="0 0 44 44" fill="none" xmlns="http://www.w3.org/2000/svg">
<path d="M39.2787 6.2788C39.4852 6.07254 39.6014 5.79267 39.6016 5.50077C39.6018 5.20887 39.486 4.92885 39.2798 4.7223C39.0735 4.51575 38.7936 4.39959 38.5017 4.39938C38.2098 4.39918 37.9298 4.51494 37.7233 4.7212L30.7999 11.6424V5.5C30.7999 5.20826 30.684 4.92847 30.4777 4.72218C30.2714 4.51589 29.9916 4.4 29.6999 4.4C29.4081 4.4 29.1283 4.51589 28.922 4.72218C28.7157 4.92847 28.5999 5.20826 28.5999 5.5V11.8294C25.1261 10.1002 20.7019 11.0814 18.3919 14.4826L5.00046 34.1638C4.05886 35.5498 4.23926 37.3978 5.43166 38.5792C6.64166 39.776 8.54466 39.941 9.94826 38.9708L29.5943 25.366C31.1533 24.2948 32.2735 22.697 32.7488 20.8661C33.2241 19.0352 33.0226 17.0943 32.1815 15.4H38.4999C38.7916 15.4 39.0714 15.2841 39.2777 15.0778C39.484 14.8715 39.5999 14.5917 39.5999 14.3C39.5999 14.0083 39.484 13.7285 39.2777 13.5222C39.0714 13.3159 38.7916 13.2 38.4999 13.2H32.3553L39.2787 6.2788ZM20.2267 15.7036C22.2551 12.7226 26.5297 12.3134 29.0971 14.8544C29.6925 15.4416 30.1508 16.1531 30.4392 16.9381C30.7276 17.723 30.839 18.562 30.7655 19.395C30.6919 20.2281 30.4352 21.0345 30.0136 21.7568C29.5921 22.479 29.0162 23.0992 28.3271 23.573L8.68106 37.1778C8.42731 37.3539 8.11999 37.4358 7.81226 37.4093C7.50453 37.3827 7.21574 37.2495 6.99586 37.0326C6.78045 36.8206 6.64637 36.5397 6.61701 36.2389C6.58766 35.9382 6.6649 35.6366 6.83526 35.387L20.2267 15.7036Z" fill="#DB8B5A"/>
</svg>
