<svg width="44" height="44" viewBox="0 0 44 44" fill="none" xmlns="http://www.w3.org/2000/svg">
<path d="M4.58301 22V36.6667C4.58301 37.1529 4.77616 37.6192 5.11998 37.963C5.4638 38.3068 5.93011 38.5 6.41634 38.5H37.583C38.0692 38.5 38.5356 38.3068 38.8794 37.963C39.2232 37.6192 39.4163 37.1529 39.4163 36.6667V22M39.4163 28.4167H4.58301" stroke="#DB8B5A" stroke-width="2" stroke-linecap="round" stroke-linejoin="round"/>
<path d="M29.3327 21.0833C29.3327 19.1384 28.5601 17.2732 27.1848 15.8979C25.8095 14.5226 23.9443 13.75 21.9993 13.75C20.0544 13.75 18.1892 14.5226 16.8139 15.8979C15.4386 17.2732 14.666 19.1384 14.666 21.0833" stroke="#DB8B5A" stroke-width="2" stroke-linecap="round"/>
<path d="M22 5.5V7.33333M32.4628 9.16667L31.1667 10.4628M11 9.16667L12.2962 10.4628" stroke="#DB8B5A" stroke-width="2" stroke-linecap="round" stroke-linejoin="round"/>
</svg>
