<svg width="44" height="44" viewBox="0 0 44 44" fill="none" xmlns="http://www.w3.org/2000/svg">
<path d="M10.9974 36.6673L13.7474 29.7923C14.0224 29.0895 14.4655 28.5316 15.0766 28.1185C15.6877 27.7054 16.3752 27.4994 17.1391 27.5007H20.1641V20.1215C15.4891 19.9687 11.57 19.2812 8.4069 18.059C5.24379 16.8368 3.66284 15.4007 3.66406 13.7507C3.66406 11.9784 5.45156 10.4659 9.02656 9.21315C12.6016 7.96037 16.9252 7.33398 21.9974 7.33398C27.1002 7.33398 31.4317 7.96037 34.9921 9.21315C38.5524 10.4659 40.332 11.9784 40.3307 13.7507C40.3307 15.4007 38.7492 16.8368 35.5861 18.059C32.423 19.2812 28.5045 19.9687 23.8307 20.1215V27.5007H26.8557C27.5891 27.5007 28.2692 27.7072 28.8962 28.1203C29.5232 28.5334 29.9736 29.0908 30.2474 29.7923L32.9974 36.6673H29.3307L27.1307 31.1673H16.8641L14.6641 36.6673H10.9974ZM21.9974 16.5007C24.9613 16.5007 27.7571 16.2409 30.3849 15.7215C33.0127 15.202 34.9377 14.5451 36.1599 13.7507C34.9377 12.9562 33.0127 12.2993 30.3849 11.7798C27.7571 11.2604 24.9613 11.0007 21.9974 11.0007C19.0335 11.0007 16.2377 11.2604 13.6099 11.7798C10.9821 12.2993 9.05712 12.9562 7.8349 13.7507C9.05712 14.5451 10.9821 15.202 13.6099 15.7215C16.2377 16.2409 19.0335 16.5007 21.9974 16.5007Z" fill="#DB8B5A"/>
</svg>
