<svg width="24" height="24" viewBox="0 0 24 24" fill="none" xmlns="http://www.w3.org/2000/svg">
<path d="M12 4.94556C8.8095 4.94556 5.83275 5.80056 3.7965 7.17156H0C0.621 7.89906 1.08075 8.88906 1.1955 9.56256C0.449266 10.583 0.0468763 11.8144 0.0465 13.0786C0.0472952 14.6635 0.677369 16.1833 1.79824 17.3039C2.91911 18.4245 4.43905 19.0542 6.024 19.0546C7.89525 19.0546 9.5685 18.1756 10.6642 16.8286C11.1097 17.3498 11.8507 18.3983 12 18.7036C12 18.7036 12.8527 17.4436 13.3358 16.8511C14.115 17.8089 15.1716 18.5019 16.3606 18.8351C17.5496 19.1682 18.8125 19.1251 19.976 18.7116C21.1394 18.2981 22.1463 17.5345 22.8584 16.5258C23.5705 15.517 23.9528 14.3126 23.9528 13.0778C23.9522 11.8141 23.5504 10.5832 22.8053 9.56256C22.9193 8.88906 23.379 7.89831 24 7.17156H20.0153C17.9805 5.80056 15.1875 4.94556 12 4.94556ZM12 5.95281C14.139 5.95281 16.0785 6.35481 17.7892 7.10181C16.2373 7.15184 14.7656 7.80339 13.6852 8.91872C12.6049 10.0341 12.0006 11.5258 12 13.0786C12 9.78231 9.34275 7.10781 6.0465 7.10106C7.755 6.35781 9.864 5.95356 12 5.95356V5.95281ZM6.02325 8.25006C8.6805 8.25006 10.8278 10.4236 10.8278 13.0786C10.8281 13.7096 10.7041 14.3345 10.4628 14.9176C10.2215 15.5007 9.86764 16.0305 9.42142 16.4767C8.97521 16.9229 8.44541 17.2768 7.86232 17.5181C7.27923 17.7594 6.6543 17.8835 6.02325 17.8831C5.39208 17.8836 4.767 17.7598 4.18377 17.5185C3.60055 17.2772 3.07064 16.9232 2.62437 16.4769C2.1781 16.0306 1.82424 15.5006 1.58305 14.9173C1.34185 14.3341 1.21806 13.709 1.21875 13.0778C1.21875 10.4243 3.366 8.25006 6.02325 8.25006ZM17.9767 8.25006C20.631 8.25006 22.7812 10.4236 22.7812 13.0786C22.7816 13.7096 22.6576 14.3345 22.4163 14.9176C22.175 15.5007 21.8211 16.0305 21.3749 16.4767C20.9287 16.9229 20.3989 17.2768 19.8158 17.5181C19.2327 17.7594 18.6078 17.8835 17.9767 17.8831C17.3455 17.8837 16.7204 17.7599 16.137 17.5187C15.5537 17.2774 15.0237 16.9235 14.5774 16.4772C14.131 16.0308 13.7771 15.5008 13.5359 14.9175C13.2946 14.3342 13.1708 13.709 13.1715 13.0778C13.1715 10.4236 15.3195 8.25006 17.9767 8.25006ZM5.95275 10.1483C5.18227 10.1493 4.44363 10.4558 3.89882 11.0006C3.354 11.5454 3.04749 12.2841 3.0465 13.0546C3.04749 13.825 3.354 14.5637 3.89882 15.1085C4.44363 15.6533 5.18227 15.9598 5.95275 15.9608C6.72323 15.9598 7.46187 15.6533 8.00668 15.1085C8.5515 14.5637 8.85801 13.825 8.859 13.0546C8.85801 12.2842 8.5516 11.5457 8.00695 11.0009C7.4623 10.4561 6.72385 10.1495 5.9535 10.1483H5.95275ZM17.9767 10.1483C17.2063 10.1493 16.4676 10.4558 15.9228 11.0006C15.378 11.5454 15.0715 12.2841 15.0705 13.0546C15.0705 14.6573 16.374 15.9376 17.9767 15.9376C19.5788 15.9376 20.883 14.6573 20.883 13.0546C20.882 12.2841 20.5755 11.5454 20.0307 11.0006C19.4859 10.4558 18.7472 10.1493 17.9767 10.1483ZM5.95275 11.0401C6.48705 11.0409 6.99926 11.2534 7.37714 11.6311C7.75502 12.0089 7.96776 12.521 7.96875 13.0553C7.96796 13.5897 7.7553 14.1021 7.3774 14.48C6.9995 14.8579 6.48718 15.0705 5.95275 15.0713C5.41845 15.0703 4.90632 14.8576 4.52858 14.4797C4.15084 14.1018 3.93829 13.5896 3.9375 13.0553C3.93849 12.521 4.15123 12.0089 4.52911 11.6311C4.90699 11.2534 5.4192 11.0409 5.9535 11.0401H5.95275ZM17.9767 11.0401C18.5109 11.041 19.0229 11.2537 19.4007 11.6314C19.7784 12.0091 19.991 12.5211 19.992 13.0553C19.992 14.1653 19.0868 15.0481 17.9767 15.0481C16.8668 15.0481 15.9608 14.1661 15.9608 13.0553C15.9617 12.521 16.1745 12.0089 16.5524 11.6311C16.9302 11.2534 17.4424 11.0409 17.9767 11.0401ZM5.8125 12.0706C5.55188 12.0719 5.30232 12.176 5.11796 12.3602C4.93361 12.5445 4.82933 12.7939 4.82775 13.0546C4.82893 13.3154 4.93304 13.5653 5.11744 13.7498C5.30184 13.9344 5.55162 14.0387 5.8125 14.0401C6.35175 14.0401 6.77325 13.5946 6.77325 13.0553C6.77325 12.5168 6.35175 12.0706 5.8125 12.0706ZM17.8125 12.0706C17.2733 12.0706 16.8517 12.5153 16.8517 13.0546C16.8517 13.5938 17.2733 14.0161 17.8125 14.0161C18.3517 14.0161 18.7972 13.5938 18.7972 13.0546C18.7957 12.7939 18.6914 12.5445 18.507 12.3602C18.3227 12.176 18.0731 12.0719 17.8125 12.0706Z" fill="white"/>
</svg>
