<svg width="44" height="44" viewBox="0 0 44 44" fill="none" xmlns="http://www.w3.org/2000/svg">
<path d="M7.33301 25.3C7.33301 22.2444 8.5479 18.9218 10.9777 15.3322C13.4062 11.7413 17.0802 7.85278 21.9997 3.66666C25.6052 6.72222 28.5312 9.625 30.7777 12.375C33.0229 15.125 34.6344 17.7375 35.6122 20.2125H31.6247C30.7691 18.4708 29.5469 16.6296 27.958 14.6887C26.3691 12.749 24.383 10.6944 21.9997 8.525C18.3636 11.8556 15.6215 14.9264 13.7735 17.7375C11.9243 20.5486 10.9997 23.0694 10.9997 25.3C10.9997 28.5694 12.0386 31.2816 14.1163 33.4363C16.1941 35.5899 18.8219 36.6667 21.9997 36.6667V40.3333C17.8136 40.3333 14.3229 38.8972 11.5277 36.025C8.73123 33.1528 7.33301 29.5778 7.33301 25.3ZM27.133 41.2042L26.3538 39.4625C26.1094 38.9431 25.934 38.401 25.8277 37.8363C25.7201 37.2704 25.6663 36.6972 25.6663 36.1167C25.6663 35.4444 25.7427 34.7796 25.8955 34.122C26.0483 33.4657 26.2775 32.8319 26.583 32.2208C26.8275 31.7014 27.0413 31.174 27.2247 30.6387C27.408 30.1046 27.4997 29.5472 27.4997 28.9667C27.4997 28.5083 27.4465 28.0653 27.3402 27.6375C27.2326 27.2097 27.0872 26.7819 26.9038 26.3542L26.2622 24.9792L28.783 23.8792L29.5622 25.5292C29.8066 26.0486 29.9826 26.5986 30.0902 27.1792C30.1965 27.7597 30.2497 28.3556 30.2497 28.9667C30.2497 29.6389 30.1733 30.2958 30.0205 30.9375C29.8677 31.5792 29.6386 32.2056 29.333 32.8167C29.0886 33.3361 28.8747 33.8708 28.6913 34.4208C28.508 34.9708 28.4163 35.5361 28.4163 36.1167C28.4163 36.5444 28.4622 36.9649 28.5538 37.378C28.6455 37.7899 28.783 38.1944 28.9663 38.5917L29.6538 40.1042L27.133 41.2042ZM32.633 41.2042L31.8538 39.4625C31.6094 38.9431 31.4334 38.401 31.3258 37.8363C31.2195 37.2704 31.1663 36.6972 31.1663 36.1167C31.1663 35.4444 31.2427 34.7796 31.3955 34.122C31.5483 33.4657 31.7775 32.8319 32.083 32.2208C32.3275 31.7014 32.5413 31.174 32.7247 30.6387C32.908 30.1046 32.9997 29.5472 32.9997 28.9667C32.9997 28.5083 32.9465 28.0653 32.8402 27.6375C32.7326 27.2097 32.5872 26.7819 32.4038 26.3542L31.7622 24.9792L34.283 23.8792L35.0622 25.5292C35.3066 26.0792 35.4826 26.6365 35.5902 27.2012C35.6965 27.7671 35.7497 28.3556 35.7497 28.9667C35.7497 29.6389 35.6733 30.2958 35.5205 30.9375C35.3677 31.5792 35.1386 32.2056 34.833 32.8167C34.5886 33.3361 34.3747 33.8708 34.1913 34.4208C34.008 34.9708 33.9163 35.5361 33.9163 36.1167C33.9163 36.5444 33.9622 36.9649 34.0538 37.378C34.1455 37.7899 34.283 38.1944 34.4663 38.5917L35.1538 40.1042L32.633 41.2042ZM38.133 41.2042L37.3538 39.4625C37.1094 38.9431 36.9334 38.401 36.8258 37.8363C36.7195 37.2704 36.6663 36.6972 36.6663 36.1167C36.6663 35.4444 36.7427 34.7796 36.8955 34.122C37.0483 33.4657 37.2775 32.8319 37.583 32.2208C37.8275 31.7014 38.0413 31.174 38.2247 30.6387C38.408 30.1046 38.4997 29.5472 38.4997 28.9667C38.4997 28.5083 38.4465 28.0653 38.3402 27.6375C38.2326 27.2097 38.0872 26.7819 37.9038 26.3542L37.2622 24.9792L39.783 23.8792L40.5622 25.5292C40.8066 26.0486 40.9826 26.5986 41.0902 27.1792C41.1965 27.7597 41.2497 28.3556 41.2497 28.9667C41.2497 29.6389 41.1733 30.3038 41.0205 30.9613C40.8677 31.6177 40.6386 32.2514 40.333 32.8625C40.0886 33.3819 39.8747 33.9093 39.6913 34.4447C39.508 34.9788 39.4163 35.5361 39.4163 36.1167C39.4163 36.5444 39.4622 36.9649 39.5538 37.378C39.6455 37.7899 39.783 38.1944 39.9663 38.5917L40.6538 40.1042L38.133 41.2042Z" fill="#DB8B5A"/>
</svg>
