<svg width="44" height="44" viewBox="0 0 44 44" fill="none" xmlns="http://www.w3.org/2000/svg">
<path d="M3.66699 23.375C3.66699 23.0389 3.78188 22.726 4.01166 22.4363C4.24021 22.1454 4.56838 21.9236 4.99616 21.7708C5.60727 21.5264 6.21838 21.1976 6.82949 20.7845C7.4406 20.3726 8.43366 20.1667 9.80866 20.1667C11.5503 20.1667 12.7194 20.4722 13.3158 21.0833C13.911 21.6944 14.7587 22 15.8587 22C17.0198 22 17.8827 21.6944 18.4473 21.0833C19.0132 20.4722 20.1975 20.1667 22.0003 20.1667C23.742 20.1667 24.9184 20.4722 25.5295 21.0833C26.1406 21.6944 26.9809 22 28.0503 22C29.2114 22 30.0743 21.6944 30.639 21.0833C31.2049 20.4722 32.3892 20.1667 34.192 20.1667C35.5364 20.1667 36.5222 20.3653 37.1492 20.7625C37.7749 21.1597 38.3934 21.4806 39.0045 21.725C39.4323 21.8778 39.7604 22.1069 39.989 22.4125C40.2188 22.7181 40.3337 23.0389 40.3337 23.375C40.3337 24.0472 40.0972 24.5893 39.6242 25.0012C39.1499 25.4143 38.6378 25.5292 38.0878 25.3458C37.2628 25.1014 36.6059 24.7879 36.117 24.4053C35.6281 24.024 34.9864 23.8333 34.192 23.8333C33.092 23.8333 32.2597 24.1389 31.695 24.75C31.1291 25.3611 29.9448 25.6667 28.142 25.6667C26.4003 25.6667 25.2166 25.3611 24.5908 24.75C23.9638 24.1389 23.1003 23.8333 22.0003 23.8333C20.8392 23.8333 19.9916 24.1389 19.4575 24.75C18.9222 25.3611 17.7531 25.6667 15.9503 25.6667C14.1475 25.6667 12.9485 25.3611 12.3533 24.75C11.7569 24.1389 10.9087 23.8333 9.80866 23.8333C9.01421 23.8333 8.3646 24.024 7.85983 24.4053C7.35627 24.7879 6.70727 25.1014 5.91283 25.3458C5.36283 25.5292 4.85133 25.4143 4.37833 25.0012C3.9041 24.5893 3.66699 24.0472 3.66699 23.375ZM3.66699 30.7083C3.66699 30.3722 3.78188 30.0593 4.01166 29.7697C4.24021 29.4788 4.56838 29.2569 4.99616 29.1042C5.60727 28.8597 6.21838 28.5309 6.82949 28.1178C7.4406 27.7059 8.43366 27.5 9.80866 27.5C11.6114 27.5 12.7952 27.8056 13.3598 28.4167C13.9257 29.0278 14.7587 29.3333 15.8587 29.3333C17.0198 29.3333 17.8827 29.0278 18.4473 28.4167C19.0132 27.8056 20.1975 27.5 22.0003 27.5C23.742 27.5 24.9263 27.8056 25.5533 28.4167C26.1791 29.0278 27.042 29.3333 28.142 29.3333C29.3031 29.3333 30.1513 29.0278 30.6867 28.4167C31.2208 27.8056 32.3892 27.5 34.192 27.5C35.567 27.5 36.56 27.7059 37.1712 28.1178C37.7823 28.5309 38.3934 28.8597 39.0045 29.1042C39.4323 29.2569 39.7604 29.4788 39.989 29.7697C40.2188 30.0593 40.3337 30.3722 40.3337 30.7083C40.3337 31.3806 40.0972 31.9232 39.6242 32.3363C39.1499 32.7482 38.6378 32.8625 38.0878 32.6792C37.2934 32.4347 36.6438 32.1212 36.139 31.7387C35.6354 31.3573 34.9864 31.1667 34.192 31.1667C33.092 31.1667 32.2597 31.4722 31.695 32.0833C31.1291 32.6944 29.9448 33 28.142 33C26.4003 33 25.2166 32.6944 24.5908 32.0833C23.9638 31.4722 23.1003 31.1667 22.0003 31.1667C20.8392 31.1667 19.9763 31.4722 19.4117 32.0833C18.8458 32.6944 17.6614 33 15.8587 33C14.0559 33 12.8874 32.6944 12.3533 32.0833C11.818 31.4722 10.9698 31.1667 9.80866 31.1667C8.9531 31.1667 8.28883 31.3573 7.81583 31.7387C7.3416 32.1212 6.70727 32.4347 5.91283 32.6792C5.36283 32.8625 4.85133 32.7482 4.37833 32.3363C3.9041 31.9232 3.66699 31.3806 3.66699 30.7083ZM3.66699 16.0417C3.66699 15.7056 3.78188 15.3927 4.01166 15.103C4.24021 14.8121 4.56838 14.5903 4.99616 14.4375C5.60727 14.1931 6.21838 13.8649 6.82949 13.453C7.4406 13.0399 8.43366 12.8333 9.80866 12.8333C11.5503 12.8333 12.7194 13.1389 13.3158 13.75C13.911 14.3611 14.7587 14.6667 15.8587 14.6667C17.0198 14.6667 17.8827 14.3611 18.4473 13.75C19.0132 13.1389 20.1975 12.8333 22.0003 12.8333C23.742 12.8333 24.9184 13.1389 25.5295 13.75C26.1406 14.3611 26.9809 14.6667 28.0503 14.6667C29.2114 14.6667 30.0743 14.3611 30.639 13.75C31.2049 13.1389 32.3892 12.8333 34.192 12.8333C35.5364 12.8333 36.5222 13.0319 37.1492 13.4292C37.7749 13.8264 38.3934 14.1472 39.0045 14.3917C39.4323 14.5444 39.7604 14.7736 39.989 15.0792C40.2188 15.3847 40.3337 15.7056 40.3337 16.0417C40.3337 16.7139 40.0972 17.2559 39.6242 17.6678C39.1499 18.0809 38.6378 18.1958 38.0878 18.0125C37.2628 17.7681 36.6059 17.4546 36.117 17.072C35.6281 16.6907 34.9864 16.5 34.192 16.5C33.092 16.5 32.2597 16.8056 31.695 17.4167C31.1291 18.0278 29.9448 18.3333 28.142 18.3333C26.4003 18.3333 25.2166 18.0278 24.5908 17.4167C23.9638 16.8056 23.1003 16.5 22.0003 16.5C20.8392 16.5 19.9916 16.8056 19.4575 17.4167C18.9222 18.0278 17.7531 18.3333 15.9503 18.3333C14.1475 18.3333 12.9485 18.0278 12.3533 17.4167C11.7569 16.8056 10.9087 16.5 9.80866 16.5C9.01421 16.5 8.3646 16.6907 7.85983 17.072C7.35627 17.4546 6.70727 17.7681 5.91283 18.0125C5.36283 18.1958 4.85133 18.0809 4.37833 17.6678C3.9041 17.2559 3.66699 16.7139 3.66699 16.0417Z" fill="#DB8B5A"/>
</svg>
