<svg width="44" height="44" viewBox="0 0 44 44" fill="none" xmlns="http://www.w3.org/2000/svg">
<path d="M31.167 34.8333V40.3333H27.5003V34.8333C27.5003 32.8167 25.8503 31.1667 23.8337 31.1667H18.3337C13.2003 31.1667 9.16699 27.1333 9.16699 22C9.16699 19.8 9.90033 17.9667 11.1837 16.3167C6.96699 15.5833 3.66699 11.7333 3.66699 7.33333C3.66699 6.05 4.03366 4.76667 4.40033 3.66667H8.80033C7.88366 4.58333 7.33366 5.86667 7.33366 7.33333C7.33366 10.45 9.71699 12.8333 12.8337 12.8333H18.3337V16.5C15.217 16.5 12.8337 18.8833 12.8337 22C12.8337 25.1167 15.217 27.5 18.3337 27.5H23.8337C27.867 27.5 31.167 30.8 31.167 34.8333ZM32.817 16.3167C37.0337 15.5833 40.3337 11.7333 40.3337 7.33333C40.3337 6.05 39.967 4.76667 39.6003 3.66667H35.2003C36.117 4.58333 36.667 5.86667 36.667 7.33333C36.667 10.45 34.2837 12.8333 31.167 12.8333H28.967C29.1503 13.3833 29.3337 13.9333 29.3337 14.6667C29.3337 17.7833 26.9503 20.1667 23.8337 20.1667V23.8333C28.967 23.8333 33.0003 27.8667 33.0003 33V40.3333H36.667V33C36.667 28.05 33.917 23.8333 29.7003 21.6333C31.3503 20.35 32.4503 18.5167 32.817 16.3167Z" fill="#DB8B5A"/>
</svg>
