<svg width="32" height="30" viewBox="0 0 32 30" fill="none" xmlns="http://www.w3.org/2000/svg">
<path d="M8.7482 20.34C10.2215 20.34 11.3482 20.7733 12.1282 21.64C12.9949 22.42 13.4282 23.5033 13.4282 24.89C13.4282 27.9233 11.6515 29.44 8.0982 29.44C5.58487 29.44 3.59154 28.53 2.1182 26.71C0.731537 24.8033 0.0382032 22.1167 0.0382032 18.65C0.0382032 15.27 0.77487 12.15 2.2482 9.29C3.8082 6.43 6.06154 3.57 9.0082 0.709998C9.09487 0.623332 9.22487 0.58 9.3982 0.58C9.6582 0.58 9.87487 0.709998 10.0482 0.969995C10.2215 1.23 10.2215 1.44666 10.0482 1.61999C5.80154 5.95333 3.6782 11.0667 3.6782 16.96C3.6782 19.2133 4.11154 20.99 4.9782 22.29C5.67154 20.99 6.9282 20.34 8.7482 20.34ZM26.9482 20.34C28.4215 20.34 29.5482 20.7733 30.3282 21.64C31.1949 22.42 31.6282 23.5033 31.6282 24.89C31.6282 27.9233 29.8515 29.44 26.2982 29.44C23.7849 29.44 21.7915 28.53 20.3182 26.71C18.9315 24.8033 18.2382 22.1167 18.2382 18.65C18.2382 15.27 18.9749 12.15 20.4482 9.29C22.0082 6.43 24.2615 3.57 27.2082 0.709998C27.2949 0.623332 27.4249 0.58 27.5982 0.58C27.8582 0.58 28.0749 0.709998 28.2482 0.969995C28.4215 1.23 28.4215 1.44666 28.2482 1.61999C24.0015 5.95333 21.8782 11.0667 21.8782 16.96C21.8782 19.2133 22.3115 20.99 23.1782 22.29C23.8715 20.99 25.1282 20.34 26.9482 20.34Z" fill="#DB8B5A"/>
</svg>
