<svg width="44" height="44" viewBox="0 0 44 44" fill="none" xmlns="http://www.w3.org/2000/svg">
<path d="M13.75 34.0273C16.7876 34.0273 19.25 31.5649 19.25 28.5273C19.25 25.4898 16.7876 23.0273 13.75 23.0273C10.7124 23.0273 8.25 25.4898 8.25 28.5273C8.25 31.5649 10.7124 34.0273 13.75 34.0273Z" stroke="#DB8B5A" stroke-width="2" stroke-linecap="round" stroke-linejoin="round"/>
<path d="M5.5 38.1523C6.46058 36.8716 7.70616 35.832 9.13811 35.1161C10.5701 34.4001 12.149 34.0273 13.75 34.0273C15.351 34.0273 16.9299 34.4001 18.3619 35.1161C19.7938 35.832 21.0394 36.8716 22 38.1523" stroke="#DB8B5A" stroke-width="2" stroke-linecap="round" stroke-linejoin="round"/>
<path d="M13.75 16.1523C16.7876 16.1523 19.25 13.6899 19.25 10.6523C19.25 7.61478 16.7876 5.15234 13.75 5.15234C10.7124 5.15234 8.25 7.61478 8.25 10.6523C8.25 13.6899 10.7124 16.1523 13.75 16.1523Z" stroke="#DB8B5A" stroke-width="2" stroke-linecap="round" stroke-linejoin="round"/>
<path d="M5.5 20.2773C6.46058 18.9966 7.70616 17.957 9.13811 17.2411C10.5701 16.5251 12.149 16.1523 13.75 16.1523C15.351 16.1523 16.9299 16.5251 18.3619 17.2411C19.7938 17.957 21.0394 18.9966 22 20.2773" stroke="#DB8B5A" stroke-width="2" stroke-linecap="round" stroke-linejoin="round"/>
<path d="M30.25 34.0273C33.2876 34.0273 35.75 31.5649 35.75 28.5273C35.75 25.4898 33.2876 23.0273 30.25 23.0273C27.2124 23.0273 24.75 25.4898 24.75 28.5273C24.75 31.5649 27.2124 34.0273 30.25 34.0273Z" stroke="#DB8B5A" stroke-width="2" stroke-linecap="round" stroke-linejoin="round"/>
<path d="M22 38.1523C22.9606 36.8716 24.2062 35.832 25.6381 35.1161C27.0701 34.4001 28.649 34.0273 30.25 34.0273C31.851 34.0273 33.4299 34.4001 34.8619 35.1161C36.2938 35.832 37.5394 36.8716 38.5 38.1523" stroke="#DB8B5A" stroke-width="2" stroke-linecap="round" stroke-linejoin="round"/>
<path d="M30.25 16.1523C33.2876 16.1523 35.75 13.6899 35.75 10.6523C35.75 7.61478 33.2876 5.15234 30.25 5.15234C27.2124 5.15234 24.75 7.61478 24.75 10.6523C24.75 13.6899 27.2124 16.1523 30.25 16.1523Z" stroke="#DB8B5A" stroke-width="2" stroke-linecap="round" stroke-linejoin="round"/>
<path d="M22 20.2773C22.9606 18.9966 24.2062 17.957 25.6381 17.2411C27.0701 16.5251 28.649 16.1523 30.25 16.1523C31.851 16.1523 33.4299 16.5251 34.8619 17.2411C36.2938 17.957 37.5394 18.9966 38.5 20.2773" stroke="#DB8B5A" stroke-width="2" stroke-linecap="round" stroke-linejoin="round"/>
</svg>
