<svg width="44" height="44" viewBox="0 0 44 44" fill="none" xmlns="http://www.w3.org/2000/svg">
<path d="M22 19L15 9.2L17.8 5H26.2L29 9.2L22 19ZM28.125 13.4L26.025 16.375C29.875 17.95 32.5 21.625 32.5 26C32.5 28.7848 31.3938 31.4555 29.4246 33.4246C27.4555 35.3938 24.7848 36.5 22 36.5C19.2152 36.5 16.5445 35.3938 14.5754 33.4246C12.6062 31.4555 11.5 28.7848 11.5 26C11.5 21.625 14.125 17.95 17.975 16.375L15.875 13.4C11.15 15.675 8 20.4 8 26C8 29.713 9.475 33.274 12.1005 35.8995C14.726 38.525 18.287 40 22 40C25.713 40 29.274 38.525 31.8995 35.8995C34.525 33.274 36 29.713 36 26C36 20.4 32.85 15.675 28.125 13.4Z" fill="#DB8B5A"/>
</svg>
