<svg width="45" height="44" viewBox="0 0 45 44" fill="none" xmlns="http://www.w3.org/2000/svg">
<path d="M38.8125 6.18613C38.8127 6.39962 38.7631 6.61023 38.6676 6.80119C38.5721 6.99215 38.4334 7.15819 38.2625 7.28612L36.7693 8.40675C35.3538 9.4685 33.7271 10.2143 31.9988 10.5938C30.2706 10.9733 28.4811 10.9777 26.751 10.6067L17.2965 8.58137C15.9508 8.29268 14.5589 8.29611 13.2146 8.59143C11.8704 8.88675 10.6051 9.46709 9.50438 10.2933L8.0125 11.4125C7.86805 11.5208 7.70367 11.5997 7.52875 11.6445C7.35384 11.6893 7.1718 11.6992 6.99305 11.6737C6.8143 11.6481 6.64232 11.5876 6.48695 11.4957C6.33158 11.4037 6.19584 11.282 6.0875 11.1375C5.97916 10.993 5.90034 10.8287 5.85552 10.6537C5.81071 10.4788 5.80079 10.2968 5.82632 10.118C5.85186 9.93929 5.91235 9.76732 6.00435 9.61195C6.09635 9.45657 6.21805 9.32084 6.3625 9.2125L7.85575 8.09187C9.27104 7.03031 10.8975 6.28462 12.6255 5.90511C14.3535 5.52559 16.1428 5.52108 17.8726 5.89188L27.3271 7.91863C28.6728 8.20732 30.0648 8.20389 31.409 7.90856C32.7533 7.61324 34.0185 7.03291 35.1193 6.20675L36.6125 5.0875C36.8167 4.93436 37.0595 4.84107 37.3137 4.81808C37.5679 4.7951 37.8235 4.84332 38.0518 4.95735C38.2802 5.07138 38.4723 5.24673 38.6066 5.46374C38.741 5.68076 38.8122 5.93089 38.8125 6.18613ZM38.8125 13.0611C38.8127 13.2746 38.7631 13.4852 38.6676 13.6762C38.5722 13.8671 38.4334 14.0332 38.2625 14.1611L36.7693 15.2817C35.3538 16.3435 33.7271 17.0893 31.9988 17.4688C30.2706 17.8483 28.4811 17.8527 26.751 17.4817L17.2965 15.4564C15.9508 15.1677 14.5589 15.1711 13.2146 15.4664C11.8704 15.7618 10.6051 16.3421 9.50438 17.1683L8.0125 18.2875C7.86805 18.3958 7.70367 18.4747 7.52875 18.5195C7.35384 18.5643 7.1718 18.5742 6.99305 18.5487C6.8143 18.5231 6.64232 18.4626 6.48695 18.3707C6.33158 18.2787 6.19585 18.157 6.0875 18.0125C5.97916 17.868 5.90034 17.7037 5.85552 17.5287C5.81071 17.3538 5.80079 17.1718 5.82632 16.993C5.85186 16.8143 5.91235 16.6423 6.00435 16.4869C6.09635 16.3316 6.21805 16.1958 6.36251 16.0875L7.85575 14.9669C9.27104 13.9053 10.8975 13.1596 12.6255 12.7801C14.3535 12.4006 16.1428 12.3961 17.8726 12.7669L27.3271 14.7936C28.6728 15.0823 30.0648 15.0789 31.409 14.7836C32.7533 14.4882 34.0185 13.9079 35.1193 13.0817L36.6125 11.9625C36.8167 11.8094 37.0595 11.7161 37.3137 11.6931C37.5679 11.6701 37.8235 11.7183 38.0518 11.8324C38.2802 11.9464 38.4723 12.1217 38.6066 12.3387C38.741 12.5558 38.8122 12.8059 38.8125 13.0611ZM38.8125 19.9361C38.8127 20.1496 38.7631 20.3602 38.6676 20.5512C38.5722 20.7421 38.4334 20.9082 38.2625 21.0361L36.7693 22.1567C35.3538 23.2185 33.7271 23.9643 31.9988 24.3438C30.2706 24.7233 28.4811 24.7277 26.751 24.3567L17.2965 22.3314C15.9508 22.0427 14.5589 22.0461 13.2146 22.3414C11.8704 22.6368 10.6051 23.2171 9.50438 24.0432L8.01251 25.1625C7.86805 25.2708 7.70367 25.3497 7.52875 25.3945C7.35384 25.4393 7.1718 25.4492 6.99305 25.4237C6.8143 25.3981 6.64233 25.3377 6.48695 25.2457C6.33158 25.1537 6.19585 25.032 6.08751 24.8875C5.97916 24.743 5.90034 24.5787 5.85552 24.4037C5.81071 24.2288 5.80079 24.0468 5.82632 23.868C5.85186 23.6893 5.91235 23.5173 6.00435 23.3619C6.09635 23.2066 6.21805 23.0708 6.36251 22.9625L7.85576 21.8433C9.27093 20.7815 10.8974 20.0355 12.6253 19.6558C14.3533 19.276 16.1427 19.2713 17.8726 19.6419L27.3271 21.6686C28.6728 21.9573 30.0648 21.9539 31.409 21.6586C32.7533 21.3632 34.0185 20.7829 35.1193 19.9567L36.6125 18.8375C36.8167 18.6844 37.0595 18.5911 37.3137 18.5681C37.5679 18.5451 37.8235 18.5933 38.0518 18.7074C38.2802 18.8214 38.4723 18.9967 38.6066 19.2137C38.741 19.4308 38.8122 19.6809 38.8125 19.9361ZM38.8125 26.8111C38.8127 27.0246 38.7631 27.2352 38.6676 27.4262C38.5722 27.6171 38.4334 27.7832 38.2625 27.9111L36.7693 29.0317C35.3538 30.0935 33.7271 30.8393 31.9988 31.2188C30.2706 31.5983 28.4811 31.6027 26.751 31.2317L17.2965 29.2064C15.9508 28.9177 14.5589 28.9211 13.2146 29.2164C11.8704 29.5118 10.6051 30.0921 9.50438 30.9182L8.01251 32.0375C7.86805 32.1458 7.70367 32.2247 7.52875 32.2695C7.35384 32.3143 7.1718 32.3242 6.99305 32.2987C6.8143 32.2731 6.64233 32.2127 6.48695 32.1207C6.33158 32.0287 6.19585 31.907 6.08751 31.7625C5.97916 31.618 5.90034 31.4537 5.85552 31.2787C5.81071 31.1038 5.80079 30.9218 5.82632 30.743C5.85186 30.5643 5.91235 30.3923 6.00435 30.2369C6.09635 30.0816 6.21805 29.9458 6.36251 29.8375L7.85576 28.7169C9.27104 27.6553 10.8975 26.9096 12.6255 26.5301C14.3535 26.1506 16.1428 26.1461 17.8726 26.5169L27.3271 28.5436C28.6728 28.8323 30.0648 28.8289 31.409 28.5336C32.7533 28.2382 34.0185 27.6579 35.1193 26.8317L36.6125 25.7125C36.8167 25.5594 37.0595 25.4661 37.3137 25.4431C37.5679 25.4201 37.8235 25.4683 38.0518 25.5824C38.2802 25.6964 38.4723 25.8717 38.6066 26.0887C38.741 26.3058 38.8122 26.5559 38.8125 26.8111ZM38.8125 33.6861C38.8129 33.8999 38.7634 34.1107 38.6679 34.3019C38.5725 34.4932 38.4336 34.6594 38.2625 34.7875L36.7693 35.9081C35.3538 36.9699 33.7271 37.7157 31.9988 38.0952C30.2706 38.4747 28.4811 38.4791 26.751 38.1081L17.2965 36.0814C15.9508 35.7927 14.5589 35.7961 13.2146 36.0914C11.8704 36.3868 10.6051 36.9671 9.50438 37.7932L8.01251 38.9125C7.86805 39.0208 7.70367 39.0997 7.52875 39.1445C7.35384 39.1893 7.1718 39.1992 6.99305 39.1737C6.63204 39.1221 6.30631 38.9292 6.08751 38.6375C5.8687 38.3458 5.77475 37.9791 5.82632 37.618C5.8779 37.257 6.07077 36.9313 6.36251 36.7125L7.85576 35.5919C9.27104 34.5303 10.8975 33.7846 12.6255 33.4051C14.3535 33.0256 16.1428 33.0211 17.8726 33.3919L27.3271 35.4186C28.6728 35.7073 30.0648 35.7039 31.409 35.4086C32.7533 35.1132 34.0185 34.5329 35.1193 33.7067L36.6125 32.5875C36.8167 32.4344 37.0595 32.3411 37.3137 32.3181C37.5679 32.2951 37.8235 32.3433 38.0518 32.4574C38.2802 32.5714 38.4723 32.7467 38.6066 32.9637C38.741 33.1808 38.8122 33.4309 38.8125 33.6861Z" fill="#DB8B5A"/>
</svg>
