<svg width="44" height="44" viewBox="0 0 44 44" fill="none" xmlns="http://www.w3.org/2000/svg">
<path d="M35.9141 18.125C35.9141 25.7219 29.7609 34.625 22.1641 34.625C14.5672 34.625 8.41406 25.7219 8.41406 18.125C8.41406 14.4783 9.86272 10.9809 12.4413 8.40228C15.02 5.82366 18.5173 4.375 22.1641 4.375C25.8108 4.375 29.3082 5.82366 31.8868 8.40228C34.4654 10.9809 35.9141 14.4783 35.9141 18.125Z" stroke="#DB8B5A" stroke-width="2" stroke-linecap="round" stroke-linejoin="round"/>
<path d="M24.0203 34.4531L26.2891 40.125H18.0391L20.3078 34.4531" stroke="#DB8B5A" stroke-width="2" stroke-linecap="round" stroke-linejoin="round"/>
<path d="M23.5391 9.99609C25.2286 10.2774 26.7879 11.0797 27.999 12.2908C29.2101 13.5019 30.0124 15.0613 30.2938 16.7508" stroke="#DB8B5A" stroke-width="2" stroke-linecap="round" stroke-linejoin="round"/>
</svg>
