<svg width="44" height="44" viewBox="0 0 44 44" fill="none" xmlns="http://www.w3.org/2000/svg">
<path d="M15.6016 22.88C15.239 22.88 14.8846 22.9875 14.5831 23.189C14.2816 23.3904 14.0466 23.6767 13.9078 24.0117C13.7691 24.3467 13.7328 24.7154 13.8035 25.071C13.8743 25.4266 14.0489 25.7533 14.3053 26.0097C14.5617 26.2661 14.8883 26.4407 15.244 26.5114C15.5996 26.5822 15.9682 26.5459 16.3032 26.4071C16.6382 26.2684 16.9245 26.0334 17.126 25.7319C17.3274 25.4304 17.435 25.0759 17.435 24.7133C17.435 24.2271 17.2418 23.7608 16.898 23.417C16.5542 23.0732 16.0879 22.88 15.6016 22.88ZM15.6016 14.6667C15.239 14.6667 14.8846 14.7742 14.5831 14.9756C14.2816 15.1771 14.0466 15.4634 13.9078 15.7984C13.7691 16.1334 13.7328 16.502 13.8035 16.8577C13.8743 17.2133 14.0489 17.54 14.3053 17.7964C14.5617 18.0528 14.8883 18.2274 15.244 18.2981C15.5996 18.3688 15.9682 18.3325 16.3032 18.1938C16.6382 18.055 16.9245 17.82 17.126 17.5185C17.3274 17.2171 17.435 16.8626 17.435 16.5C17.435 16.0138 17.2418 15.5475 16.898 15.2036C16.5542 14.8598 16.0879 14.6667 15.6016 14.6667ZM22 18.3333C21.5137 18.3333 21.0474 18.5265 20.7036 18.8703C20.3598 19.2141 20.1666 19.6804 20.1666 20.1667V22C20.1666 22.4862 20.3598 22.9525 20.7036 23.2964C21.0474 23.6402 21.5137 23.8333 22 23.8333C22.4862 23.8333 22.9525 23.6402 23.2963 23.2964C23.6401 22.9525 23.8333 22.4862 23.8333 22V20.1667C23.8333 19.6804 23.6401 19.2141 23.2963 18.8703C22.9525 18.5265 22.4862 18.3333 22 18.3333ZM37.5833 15.7117C36.9508 15.3478 36.2523 15.1134 35.5284 15.0221C34.8045 14.9308 34.0696 14.9845 33.3666 15.18C32.635 15.376 31.9537 15.726 31.3683 16.2067L10.1016 3.905C9.82292 3.74409 9.50678 3.65938 9.18496 3.65938C8.86314 3.65938 8.54699 3.74409 8.26829 3.905C7.9851 4.06418 7.7493 4.29575 7.58501 4.57601C7.42072 4.85626 7.33385 5.17514 7.33329 5.5V29.645C6.25136 30.0099 5.31327 30.709 4.65428 31.6415C3.9953 32.574 3.64946 33.6916 3.66663 34.8333C3.66612 36.267 4.2254 37.6441 5.22534 38.6715C6.22528 39.6988 7.58684 40.2951 9.01996 40.3333H10.0833C16.0906 40.3192 21.9873 38.7158 27.1746 35.6858C32.3619 32.6559 36.6551 28.3073 39.6183 23.0817C40.3027 21.8313 40.4749 20.3641 40.0987 18.9893C39.7225 17.6145 38.8273 16.4394 37.6016 15.7117H37.5833ZM11 8.67166L29.1316 19.14C27.1201 22.1416 24.4309 24.628 21.2813 26.3987C18.1316 28.1694 14.6097 29.1747 11 29.3333V8.67166ZM36.4283 21.285C33.7066 26.0804 29.7318 30.0452 24.9296 32.7547C20.1273 35.4642 14.6785 36.8165 9.16663 36.6667C8.6804 36.6667 8.21408 36.4735 7.87026 36.1297C7.52645 35.7859 7.33329 35.3196 7.33329 34.8333C7.33186 34.5877 7.37981 34.3443 7.47429 34.1175C7.56877 33.8907 7.70786 33.6853 7.88329 33.5133C8.22771 33.1813 8.68826 32.9971 9.16663 33H10.1016C14.8091 32.9981 19.4317 31.7462 23.4967 29.3722C27.5618 26.9982 30.9235 23.5874 33.2383 19.4883C33.3496 19.2872 33.5016 19.1116 33.6848 18.9727C33.8679 18.8338 34.078 18.7346 34.3016 18.6817C34.7639 18.5548 35.2575 18.614 35.6766 18.8467C36.0973 19.0728 36.4131 19.4541 36.5569 19.9094C36.7007 20.3648 36.6611 20.8583 36.4466 21.285H36.4283Z" fill="#DB8B5A"/>
</svg>
