<svg width="45" height="44" viewBox="0 0 45 44" fill="none" xmlns="http://www.w3.org/2000/svg">
<path d="M22.9289 29.1624C26.5808 29.1624 29.5413 26.2019 29.5413 22.55C29.5413 18.898 26.5808 15.9375 22.9289 15.9375C19.2769 15.9375 16.3164 18.898 16.3164 22.55C16.3164 26.2019 19.2769 29.1624 22.9289 29.1624Z" stroke="#DB8B5A" stroke-width="2" stroke-linecap="round" stroke-linejoin="round"/>
<path d="M34.168 18.584C35.7082 18.5814 37.2278 18.9388 38.6055 19.6276C39.9832 20.3165 41.1808 21.3177 42.1029 22.5515" stroke="#DB8B5A" stroke-width="2" stroke-linecap="round" stroke-linejoin="round"/>
<path d="M3.75 22.5515C4.67211 21.3177 5.86976 20.3165 7.24743 19.6276C8.6251 18.9388 10.1447 18.5814 11.685 18.584" stroke="#DB8B5A" stroke-width="2" stroke-linecap="round" stroke-linejoin="round"/>
<path d="M13.4023 35.111C14.2732 33.3275 15.6276 31.8244 17.311 30.7729C18.9945 29.7215 20.9395 29.1641 22.9243 29.1641C24.9091 29.1641 26.8541 29.7215 28.5375 30.7729C30.221 31.8244 31.5753 33.3275 32.4462 35.111" stroke="#DB8B5A" stroke-width="2" stroke-linecap="round" stroke-linejoin="round"/>
<path d="M11.6821 18.5799C10.678 18.581 9.69444 18.2962 8.84622 17.759C7.998 17.2218 7.32018 16.4543 6.89197 15.5461C6.46375 14.638 6.30282 13.6267 6.42799 12.6305C6.55315 11.6343 6.95923 10.6943 7.59878 9.92033C8.23834 9.14635 9.08495 8.57036 10.0397 8.25966C10.9945 7.94896 12.0179 7.91638 12.9905 8.16574C13.9631 8.4151 14.8446 8.93609 15.5321 9.66784C16.2195 10.3996 16.6846 11.3119 16.8728 12.2981" stroke="#DB8B5A" stroke-width="2" stroke-linecap="round" stroke-linejoin="round"/>
<path d="M28.9766 12.2981C29.1648 11.3119 29.6299 10.3996 30.3173 9.66784C31.0048 8.93609 31.8863 8.4151 32.8589 8.16574C33.8315 7.91638 34.8549 7.94896 35.8097 8.25966C36.7644 8.57036 37.6111 9.14635 38.2506 9.92033C38.8902 10.6943 39.2963 11.6343 39.4214 12.6305C39.5466 13.6267 39.3856 14.638 38.9574 15.5461C38.5292 16.4543 37.8514 17.2218 37.0032 17.759C36.155 18.2962 35.1714 18.581 34.1673 18.5799" stroke="#DB8B5A" stroke-width="2" stroke-linecap="round" stroke-linejoin="round"/>
</svg>
