<svg width="331" height="35" viewBox="0 0 331 35" fill="none" xmlns="http://www.w3.org/2000/svg">
<path d="M3.61 27H9.492V26.932C8.948 24.892 9.016 23.838 9.458 21.084L12.756 2.69L15.51 2.792C16.7 2.792 17.89 6.09 18.978 8.81L19.284 8.742L19.454 2.112H2.488L0.278 8.674L0.618 8.81C2.522 6.362 4.97 2.894 6.296 2.792L9.084 2.656L5.752 21.084C5.31 23.77 4.8 24.926 3.61 26.932V27ZM36.8599 15.848L34.3099 27.306L39.7159 26.796V26.728C37.8459 26.388 38.0839 25.198 38.7299 22.206L40.0899 15.644C40.8039 12.108 39.5459 10.272 37.5059 10.272C34.4119 10.272 31.7599 14.386 29.9579 19.112L34.0379 0.547998L28.7339 2.248V2.316C30.0599 3.404 29.8899 5.24 29.4479 7.314L26.5919 20.642C25.9459 23.532 25.4699 25.436 24.6879 26.932V27H29.2779V26.932C28.9719 25.436 29.0739 24.11 29.5159 21.968L29.5839 21.594C32.0319 15.916 33.7659 12.89 35.7039 12.89C36.9619 12.89 37.2339 14.114 36.8599 15.848ZM53.9618 27.51C56.5798 27.51 58.8578 25.776 60.0478 22.478L59.8778 22.308C58.7898 24.246 57.3278 24.994 55.8658 24.994C54.1658 24.994 52.6358 23.94 52.6358 20.268C52.6358 19.01 52.8058 17.82 53.1118 16.664C59.7758 16.562 62.0538 14.726 62.0538 12.686C62.0538 10.68 59.7758 10.272 58.5178 10.272C53.5198 10.272 49.0998 15.814 49.0998 21.56C49.0998 25.402 51.0038 27.51 53.9618 27.51ZM58.1778 10.884C58.9938 10.884 59.4018 11.292 59.4018 12.142C59.4018 13.298 58.5518 15.406 53.2478 16.324C54.2338 13.162 56.2398 10.884 58.1778 10.884ZM91.2192 20.438L89.4512 27.306L94.7552 26.66V26.592C92.9192 25.878 92.9872 24.858 93.7012 22.24L96.7952 10.272H96.5572L95.2312 10.816C94.3812 10.442 93.3272 10.272 92.1032 10.272C85.7452 10.272 81.4612 17.004 81.4612 22.58C81.4612 25.674 82.7532 27.51 84.7592 27.51C87.3772 27.51 89.5872 24.212 91.2192 20.438ZM86.4252 25.028C85.9152 25.028 84.8952 24.756 84.8952 22.036C84.8952 17.718 87.6492 11.054 91.5252 11.054C92.3412 11.054 92.9532 11.292 93.2592 12.006L91.8652 17.208C90.4032 20.778 88.4652 25.028 86.4252 25.028ZM103.791 26.932V27H108.381V26.932C108.075 25.436 108.177 24.11 108.687 21.968L108.755 21.594C110.931 16.766 112.291 14.216 114.059 14.216C114.297 14.216 114.569 14.284 114.807 14.454H114.943L116.405 10.272C113.345 10.272 110.727 15.338 108.823 20.03L110.931 10.102L105.831 11.802V11.87C106.817 12.72 107.055 14.386 106.511 16.868L105.695 20.642C105.049 23.532 104.709 25.198 103.791 26.932ZM125.989 27.51C127.893 27.51 129.763 25.81 131.259 23.09L130.919 22.852C130.205 23.838 128.811 25.266 127.723 25.266C127.077 25.266 126.703 24.824 127.145 22.818L129.559 11.462H133.503L133.639 10.782H129.695L130.477 7.144H130.171L124.561 11.19V11.462H126.329L123.881 22.784C123.133 26.456 124.425 27.51 125.989 27.51ZM166.467 16.426C166.467 12.618 164.699 10.272 161.299 10.272C157.049 10.272 152.459 15.814 152.459 21.39C152.459 25.164 154.227 27.51 157.627 27.51C161.877 27.51 166.467 21.968 166.467 16.426ZM155.689 22.92C155.689 16.562 158.239 10.884 161.231 10.884C162.693 10.884 163.237 12.448 163.237 14.862C163.237 21.22 160.585 26.898 157.729 26.898C156.267 26.898 155.689 25.334 155.689 22.92ZM178.21 11.462L173.756 32.61H176.918L181.372 11.462H184.364L184.5 10.782H181.508L182.324 6.872C183.106 3.098 184.024 1.228 185.044 1.228C185.928 1.228 186.846 2.928 187.968 4.866L188.24 4.798L187.968 0.888C187.594 0.751999 186.914 0.547998 186.064 0.547998C182.97 0.547998 179.876 3.472 178.89 8.266L178.346 10.782H176.204L176.034 11.462H178.21ZM222.736 15.848L220.22 27.306L225.592 26.66V26.592C223.688 26.218 223.892 25.266 224.538 22.274L225.966 15.644C226.748 12.142 225.83 10.272 223.688 10.272C220.594 10.272 218.18 14.488 216.276 19.248L217.024 15.746C217.806 12.074 216.956 10.272 215.018 10.272C212.06 10.272 209.408 14.488 207.606 19.214L209.544 10.102L204.308 11.802V11.87C205.362 12.686 205.6 14.352 205.056 16.868L204.24 20.642C203.594 23.532 203.254 25.198 202.336 26.932V27H206.926V26.932C206.62 25.436 206.756 24.11 207.198 21.968L207.266 21.594C209.816 15.95 211.312 12.89 213.148 12.89C214.202 12.89 214.372 13.944 213.964 15.848L212.944 20.676C212.4 23.532 211.924 25.164 211.074 26.932V27H215.664V26.932C215.324 25.334 215.46 24.246 216.004 21.526C218.554 15.95 220.016 12.89 221.886 12.89C222.906 12.89 223.178 13.876 222.736 15.848ZM248.954 16.426C248.954 12.618 247.186 10.272 243.786 10.272C239.536 10.272 234.946 15.814 234.946 21.39C234.946 25.164 236.714 27.51 240.114 27.51C244.364 27.51 248.954 21.968 248.954 16.426ZM238.176 22.92C238.176 16.562 240.726 10.884 243.718 10.884C245.18 10.884 245.724 12.448 245.724 14.862C245.724 21.22 243.072 26.898 240.216 26.898C238.754 26.898 238.176 25.334 238.176 22.92ZM258.797 15.304L259.171 27.34H259.681L270.391 10.85V10.782H266.073V10.85C267.739 11.938 267.433 13.842 264.985 17.65L262.265 21.968L261.959 10.782H257.437V10.85C258.525 11.836 258.797 12.822 258.797 15.304ZM284.225 4.628C284.225 3.506 283.341 2.588 282.219 2.588C281.131 2.588 280.213 3.506 280.213 4.628C280.213 5.716 281.131 6.634 282.219 6.634C283.341 6.634 284.225 5.716 284.225 4.628ZM275.895 26.932V27H280.519V26.932C280.247 25.47 280.349 24.076 281.063 20.642L283.307 10.102L277.935 11.802V11.87C278.921 12.652 279.159 14.318 278.649 16.868L277.833 20.642C277.187 23.532 276.881 25.334 275.895 26.932ZM302.673 15.848L300.123 27.306L305.529 26.796V26.728C303.625 26.354 303.863 25.198 304.509 22.206L305.903 15.644C306.617 12.108 305.359 10.272 303.319 10.272C300.191 10.272 297.539 14.454 295.737 19.18L297.675 10.102L292.439 11.802V11.87C293.459 12.686 293.697 14.352 293.153 16.868L292.337 20.642C291.793 23.532 291.351 25.164 290.433 26.932V27H295.023V26.932C294.717 25.436 294.887 24.11 295.329 21.968L295.397 21.594C297.845 15.916 299.579 12.89 301.517 12.89C302.741 12.89 303.047 14.114 302.673 15.848ZM318.856 18.568C318.856 14.624 320.692 10.884 322.664 10.884C323.718 10.884 324.058 11.836 324.058 13.74C324.058 17.684 322.222 21.424 320.25 21.424C319.196 21.424 318.856 20.472 318.856 18.568ZM326.506 29.108C326.506 26.15 323.616 25.64 321.304 25.096C318.958 24.552 317.224 24.212 317.224 23.056C317.224 22.512 317.598 22.036 318.38 21.628C318.924 21.9 319.536 22.036 320.25 22.036C323.548 22.036 327.118 18.602 327.118 14.998C327.118 13.536 326.54 12.21 325.486 11.292L329.43 12.38H329.566L330.246 9.694L330.212 9.66L324.976 10.884C324.33 10.51 323.582 10.272 322.664 10.272C319.4 10.272 315.796 13.706 315.796 17.31C315.796 18.976 316.578 20.574 317.972 21.424C316.442 21.866 314.912 23.022 314.912 24.688C314.912 26.014 315.66 26.694 316.85 27.204C314.164 27.646 311.546 29.108 311.546 31.318C311.546 33.596 314.334 34.684 317.87 34.684C323.14 34.684 326.506 32.236 326.506 29.108ZM318.856 33.698C315.694 33.698 314.402 32.542 314.402 30.774C314.402 29.176 315.456 28.02 317.36 27.374C318.176 27.68 319.128 27.816 320.046 28.054C322.324 28.496 324.5 28.734 324.5 30.502C324.5 32.372 322.29 33.698 318.856 33.698Z" fill="#DB8B5A"/>
</svg>
