<svg width="358" height="33" viewBox="0 0 358 33" fill="none" xmlns="http://www.w3.org/2000/svg">
<path d="M3.61 27H9.492V26.932C8.948 24.892 9.016 23.838 9.458 21.084L12.756 2.69L15.51 2.792C16.7 2.792 17.89 6.09 18.978 8.81L19.284 8.742L19.454 2.112H2.488L0.278 8.674L0.618 8.81C2.522 6.362 4.97 2.894 6.296 2.792L9.084 2.656L5.752 21.084C5.31 23.77 4.8 24.926 3.61 26.932V27ZM36.8599 15.848L34.3099 27.306L39.7159 26.796V26.728C37.8459 26.388 38.0839 25.198 38.7299 22.206L40.0899 15.644C40.8039 12.108 39.5459 10.272 37.5059 10.272C34.4119 10.272 31.7599 14.386 29.9579 19.112L34.0379 0.547998L28.7339 2.248V2.316C30.0599 3.404 29.8899 5.24 29.4479 7.314L26.5919 20.642C25.9459 23.532 25.4699 25.436 24.6879 26.932V27H29.2779V26.932C28.9719 25.436 29.0739 24.11 29.5159 21.968L29.5839 21.594C32.0319 15.916 33.7659 12.89 35.7039 12.89C36.9619 12.89 37.2339 14.114 36.8599 15.848ZM53.9618 27.51C56.5798 27.51 58.8578 25.776 60.0478 22.478L59.8778 22.308C58.7898 24.246 57.3278 24.994 55.8658 24.994C54.1658 24.994 52.6358 23.94 52.6358 20.268C52.6358 19.01 52.8058 17.82 53.1118 16.664C59.7758 16.562 62.0538 14.726 62.0538 12.686C62.0538 10.68 59.7758 10.272 58.5178 10.272C53.5198 10.272 49.0998 15.814 49.0998 21.56C49.0998 25.402 51.0038 27.51 53.9618 27.51ZM58.1778 10.884C58.9938 10.884 59.4018 11.292 59.4018 12.142C59.4018 13.298 58.5518 15.406 53.2478 16.324C54.2338 13.162 56.2398 10.884 58.1778 10.884ZM91.2192 20.438L89.4512 27.306L94.7552 26.66V26.592C92.9192 25.878 92.9872 24.858 93.7012 22.24L96.7952 10.272H96.5572L95.2312 10.816C94.3812 10.442 93.3272 10.272 92.1032 10.272C85.7452 10.272 81.4612 17.004 81.4612 22.58C81.4612 25.674 82.7532 27.51 84.7592 27.51C87.3772 27.51 89.5872 24.212 91.2192 20.438ZM86.4252 25.028C85.9152 25.028 84.8952 24.756 84.8952 22.036C84.8952 17.718 87.6492 11.054 91.5252 11.054C92.3412 11.054 92.9532 11.292 93.2592 12.006L91.8652 17.208C90.4032 20.778 88.4652 25.028 86.4252 25.028ZM103.791 26.932V27H108.381V26.932C108.075 25.436 108.177 24.11 108.687 21.968L108.755 21.594C110.931 16.766 112.291 14.216 114.059 14.216C114.297 14.216 114.569 14.284 114.807 14.454H114.943L116.405 10.272C113.345 10.272 110.727 15.338 108.823 20.03L110.931 10.102L105.831 11.802V11.87C106.817 12.72 107.055 14.386 106.511 16.868L105.695 20.642C105.049 23.532 104.709 25.198 103.791 26.932ZM125.989 27.51C127.893 27.51 129.763 25.81 131.259 23.09L130.919 22.852C130.205 23.838 128.811 25.266 127.723 25.266C127.077 25.266 126.703 24.824 127.145 22.818L129.559 11.462H133.503L133.639 10.782H129.695L130.477 7.144H130.171L124.561 11.19V11.462H126.329L123.881 22.784C123.133 26.456 124.425 27.51 125.989 27.51ZM166.467 16.426C166.467 12.618 164.699 10.272 161.299 10.272C157.049 10.272 152.459 15.814 152.459 21.39C152.459 25.164 154.227 27.51 157.627 27.51C161.877 27.51 166.467 21.968 166.467 16.426ZM155.689 22.92C155.689 16.562 158.239 10.884 161.231 10.884C162.693 10.884 163.237 12.448 163.237 14.862C163.237 21.22 160.585 26.898 157.729 26.898C156.267 26.898 155.689 25.334 155.689 22.92ZM178.21 11.462L173.756 32.61H176.918L181.372 11.462H184.364L184.5 10.782H181.508L182.324 6.872C183.106 3.098 184.024 1.228 185.044 1.228C185.928 1.228 186.846 2.928 187.968 4.866L188.24 4.798L187.968 0.888C187.594 0.751999 186.914 0.547998 186.064 0.547998C182.97 0.547998 179.876 3.472 178.89 8.266L178.346 10.782H176.204L176.034 11.462H178.21ZM204.92 15.304L205.294 27.34H205.804L216.514 10.85V10.782H212.196V10.85C213.862 11.938 213.556 13.842 211.108 17.65L208.388 21.968L208.082 10.782H203.56V10.85C204.648 11.836 204.92 12.822 204.92 15.304ZM231.754 20.438L229.986 27.306L235.29 26.66V26.592C233.454 25.878 233.522 24.858 234.236 22.24L237.33 10.272H237.092L235.766 10.816C234.916 10.442 233.862 10.272 232.638 10.272C226.28 10.272 221.996 17.004 221.996 22.58C221.996 25.674 223.288 27.51 225.294 27.51C227.912 27.51 230.122 24.212 231.754 20.438ZM226.96 25.028C226.45 25.028 225.43 24.756 225.43 22.036C225.43 17.718 228.184 11.054 232.06 11.054C232.876 11.054 233.488 11.292 233.794 12.006L232.4 17.208C230.938 20.778 229 25.028 226.96 25.028ZM256.158 21.832L255.954 21.764C254.832 24.076 253.404 24.858 251.806 24.858C249.494 24.858 248.168 23.09 248.168 19.656C248.168 14.624 251.092 10.884 253.166 10.884C254.798 10.884 255.546 12.686 257.008 15.304L257.314 15.236V10.816C256.94 10.578 255.614 10.272 254.118 10.272C248.746 10.272 244.768 15.678 244.768 21.288C244.768 25.096 246.604 27.51 249.902 27.51C253.064 27.51 255.206 25.232 256.158 21.832ZM274.641 20.438L272.873 27.306L278.177 26.66V26.592C276.341 25.878 276.409 24.858 277.123 22.24L280.217 10.272H279.979L278.653 10.816C277.803 10.442 276.749 10.272 275.525 10.272C269.167 10.272 264.883 17.004 264.883 22.58C264.883 25.674 266.175 27.51 268.181 27.51C270.799 27.51 273.009 24.212 274.641 20.438ZM269.847 25.028C269.337 25.028 268.317 24.756 268.317 22.036C268.317 17.718 271.071 11.054 274.947 11.054C275.763 11.054 276.375 11.292 276.681 12.006L275.287 17.208C273.825 20.778 271.887 25.028 269.847 25.028ZM291.089 27.51C292.993 27.51 294.863 25.81 296.359 23.09L296.019 22.852C295.305 23.838 293.911 25.266 292.823 25.266C292.177 25.266 291.803 24.824 292.245 22.818L294.659 11.462H298.603L298.739 10.782H294.795L295.577 7.144H295.271L289.661 11.19V11.462H291.429L288.981 22.784C288.233 26.456 289.525 27.51 291.089 27.51ZM313.333 4.628C313.333 3.506 312.449 2.588 311.327 2.588C310.239 2.588 309.321 3.506 309.321 4.628C309.321 5.716 310.239 6.634 311.327 6.634C312.449 6.634 313.333 5.716 313.333 4.628ZM305.003 26.932V27H309.627V26.932C309.355 25.47 309.457 24.076 310.171 20.642L312.415 10.102L307.043 11.802V11.87C308.029 12.652 308.267 14.318 307.757 16.868L306.941 20.642C306.295 23.532 305.989 25.334 305.003 26.932ZM333.991 16.426C333.991 12.618 332.223 10.272 328.823 10.272C324.573 10.272 319.983 15.814 319.983 21.39C319.983 25.164 321.751 27.51 325.151 27.51C329.401 27.51 333.991 21.968 333.991 16.426ZM323.213 22.92C323.213 16.562 325.763 10.884 328.755 10.884C330.217 10.884 330.761 12.448 330.761 14.862C330.761 21.22 328.109 26.898 325.253 26.898C323.791 26.898 323.213 25.334 323.213 22.92ZM353.822 15.848L351.272 27.306L356.678 26.796V26.728C354.774 26.354 355.012 25.198 355.658 22.206L357.052 15.644C357.766 12.108 356.508 10.272 354.468 10.272C351.34 10.272 348.688 14.454 346.886 19.18L348.824 10.102L343.588 11.802V11.87C344.608 12.686 344.846 14.352 344.302 16.868L343.486 20.642C342.942 23.532 342.5 25.164 341.582 26.932V27H346.172V26.932C345.866 25.436 346.036 24.11 346.478 21.968L346.546 21.594C348.994 15.916 350.728 12.89 352.666 12.89C353.89 12.89 354.196 14.114 353.822 15.848Z" fill="#DB8B5A"/>
</svg>
