<svg width="412" height="33" viewBox="0 0 412 33" fill="none" xmlns="http://www.w3.org/2000/svg">
<path d="M3.61 27H9.492V26.932C8.948 24.892 9.016 23.838 9.458 21.084L12.756 2.69L15.51 2.792C16.7 2.792 17.89 6.09 18.978 8.81L19.284 8.742L19.454 2.112H2.488L0.278 8.674L0.618 8.81C2.522 6.362 4.97 2.894 6.296 2.792L9.084 2.656L5.752 21.084C5.31 23.77 4.8 24.926 3.61 26.932V27ZM36.8599 15.848L34.3099 27.306L39.7159 26.796V26.728C37.8459 26.388 38.0839 25.198 38.7299 22.206L40.0899 15.644C40.8039 12.108 39.5459 10.272 37.5059 10.272C34.4119 10.272 31.7599 14.386 29.9579 19.112L34.0379 0.547998L28.7339 2.248V2.316C30.0599 3.404 29.8899 5.24 29.4479 7.314L26.5919 20.642C25.9459 23.532 25.4699 25.436 24.6879 26.932V27H29.2779V26.932C28.9719 25.436 29.0739 24.11 29.5159 21.968L29.5839 21.594C32.0319 15.916 33.7659 12.89 35.7039 12.89C36.9619 12.89 37.2339 14.114 36.8599 15.848ZM53.9618 27.51C56.5798 27.51 58.8578 25.776 60.0478 22.478L59.8778 22.308C58.7898 24.246 57.3278 24.994 55.8658 24.994C54.1658 24.994 52.6358 23.94 52.6358 20.268C52.6358 19.01 52.8058 17.82 53.1118 16.664C59.7758 16.562 62.0538 14.726 62.0538 12.686C62.0538 10.68 59.7758 10.272 58.5178 10.272C53.5198 10.272 49.0998 15.814 49.0998 21.56C49.0998 25.402 51.0038 27.51 53.9618 27.51ZM58.1778 10.884C58.9938 10.884 59.4018 11.292 59.4018 12.142C59.4018 13.298 58.5518 15.406 53.2478 16.324C54.2338 13.162 56.2398 10.884 58.1778 10.884ZM91.2192 20.438L89.4512 27.306L94.7552 26.66V26.592C92.9192 25.878 92.9872 24.858 93.7012 22.24L96.7952 10.272H96.5572L95.2312 10.816C94.3812 10.442 93.3272 10.272 92.1032 10.272C85.7452 10.272 81.4612 17.004 81.4612 22.58C81.4612 25.674 82.7532 27.51 84.7592 27.51C87.3772 27.51 89.5872 24.212 91.2192 20.438ZM86.4252 25.028C85.9152 25.028 84.8952 24.756 84.8952 22.036C84.8952 17.718 87.6492 11.054 91.5252 11.054C92.3412 11.054 92.9532 11.292 93.2592 12.006L91.8652 17.208C90.4032 20.778 88.4652 25.028 86.4252 25.028ZM103.791 26.932V27H108.381V26.932C108.075 25.436 108.177 24.11 108.687 21.968L108.755 21.594C110.931 16.766 112.291 14.216 114.059 14.216C114.297 14.216 114.569 14.284 114.807 14.454H114.943L116.405 10.272C113.345 10.272 110.727 15.338 108.823 20.03L110.931 10.102L105.831 11.802V11.87C106.817 12.72 107.055 14.386 106.511 16.868L105.695 20.642C105.049 23.532 104.709 25.198 103.791 26.932ZM125.989 27.51C127.893 27.51 129.763 25.81 131.259 23.09L130.919 22.852C130.205 23.838 128.811 25.266 127.723 25.266C127.077 25.266 126.703 24.824 127.145 22.818L129.559 11.462H133.503L133.639 10.782H129.695L130.477 7.144H130.171L124.561 11.19V11.462H126.329L123.881 22.784C123.133 26.456 124.425 27.51 125.989 27.51ZM166.467 16.426C166.467 12.618 164.699 10.272 161.299 10.272C157.049 10.272 152.459 15.814 152.459 21.39C152.459 25.164 154.227 27.51 157.627 27.51C161.877 27.51 166.467 21.968 166.467 16.426ZM155.689 22.92C155.689 16.562 158.239 10.884 161.231 10.884C162.693 10.884 163.237 12.448 163.237 14.862C163.237 21.22 160.585 26.898 157.729 26.898C156.267 26.898 155.689 25.334 155.689 22.92ZM178.21 11.462L173.756 32.61H176.918L181.372 11.462H184.364L184.5 10.782H181.508L182.324 6.872C183.106 3.098 184.024 1.228 185.044 1.228C185.928 1.228 186.846 2.928 187.968 4.866L188.24 4.798L187.968 0.888C187.594 0.751999 186.914 0.547998 186.064 0.547998C182.97 0.547998 179.876 3.472 178.89 8.266L178.346 10.782H176.204L176.034 11.462H178.21ZM214.168 21.832L213.964 21.764C212.842 24.076 211.414 24.858 209.816 24.858C207.504 24.858 206.178 23.09 206.178 19.656C206.178 14.624 209.102 10.884 211.176 10.884C212.808 10.884 213.556 12.686 215.018 15.304L215.324 15.236V10.816C214.95 10.578 213.624 10.272 212.128 10.272C206.756 10.272 202.778 15.678 202.778 21.288C202.778 25.096 204.614 27.51 207.912 27.51C211.074 27.51 213.216 25.232 214.168 21.832ZM227.921 27.51C230.539 27.51 232.817 25.776 234.007 22.478L233.837 22.308C232.749 24.246 231.287 24.994 229.825 24.994C228.125 24.994 226.595 23.94 226.595 20.268C226.595 19.01 226.765 17.82 227.071 16.664C233.735 16.562 236.013 14.726 236.013 12.686C236.013 10.68 233.735 10.272 232.477 10.272C227.479 10.272 223.059 15.814 223.059 21.56C223.059 25.402 224.963 27.51 227.921 27.51ZM232.137 10.884C232.953 10.884 233.361 11.292 233.361 12.142C233.361 13.298 232.511 15.406 227.207 16.324C228.193 13.162 230.199 10.884 232.137 10.884ZM242.264 27H246.854V26.932C246.582 25.402 246.65 24.11 247.364 20.574L251.614 0.547998L246.31 2.248V2.316C247.636 3.404 247.466 5.24 247.024 7.314L244.168 20.642C243.522 23.532 243.046 25.436 242.264 26.932V27ZM262.075 27.51C264.693 27.51 266.971 25.776 268.161 22.478L267.991 22.308C266.903 24.246 265.441 24.994 263.979 24.994C262.279 24.994 260.749 23.94 260.749 20.268C260.749 19.01 260.919 17.82 261.225 16.664C267.889 16.562 270.167 14.726 270.167 12.686C270.167 10.68 267.889 10.272 266.631 10.272C261.633 10.272 257.213 15.814 257.213 21.56C257.213 25.402 259.117 27.51 262.075 27.51ZM266.291 10.884C267.107 10.884 267.515 11.292 267.515 12.142C267.515 13.298 266.665 15.406 261.361 16.324C262.347 13.162 264.353 10.884 266.291 10.884ZM283.58 27.51C288.85 27.51 292.556 21.696 292.556 15.61C292.556 11.938 291.298 10.272 288.986 10.272C286.13 10.272 283.988 12.958 282.39 17.208L286.062 0.513999L280.69 2.214V2.282C281.642 3.404 281.71 5.24 281.404 7.314L278.582 20.506C277.494 25.572 280.588 27.51 283.58 27.51ZM283.784 26.898C282.118 26.898 280.792 25.3 281.71 21.118L281.948 19.962C284.498 13.298 286.232 12.142 287.558 12.142C288.748 12.142 289.36 12.958 289.36 15.542C289.36 20.37 287.184 26.898 283.784 26.898ZM300.156 26.932V27H304.746V26.932C304.44 25.436 304.542 24.11 305.052 21.968L305.12 21.594C307.296 16.766 308.656 14.216 310.424 14.216C310.662 14.216 310.934 14.284 311.172 14.454H311.308L312.77 10.272C309.71 10.272 307.092 15.338 305.188 20.03L307.296 10.102L302.196 11.802V11.87C303.182 12.72 303.42 14.386 302.876 16.868L302.06 20.642C301.414 23.532 301.074 25.198 300.156 26.932ZM328.147 20.438L326.379 27.306L331.683 26.66V26.592C329.847 25.878 329.915 24.858 330.629 22.24L333.723 10.272H333.485L332.159 10.816C331.309 10.442 330.255 10.272 329.031 10.272C322.673 10.272 318.389 17.004 318.389 22.58C318.389 25.674 319.681 27.51 321.687 27.51C324.305 27.51 326.515 24.212 328.147 20.438ZM323.353 25.028C322.843 25.028 321.823 24.756 321.823 22.036C321.823 17.718 324.577 11.054 328.453 11.054C329.269 11.054 329.881 11.292 330.187 12.006L328.793 17.208C327.331 20.778 325.393 25.028 323.353 25.028ZM344.594 27.51C346.498 27.51 348.368 25.81 349.864 23.09L349.524 22.852C348.81 23.838 347.416 25.266 346.328 25.266C345.682 25.266 345.308 24.824 345.75 22.818L348.164 11.462H352.108L352.244 10.782H348.3L349.082 7.144H348.776L343.166 11.19V11.462H344.934L342.486 22.784C341.738 26.456 343.03 27.51 344.594 27.51ZM366.839 4.628C366.839 3.506 365.955 2.588 364.833 2.588C363.745 2.588 362.827 3.506 362.827 4.628C362.827 5.716 363.745 6.634 364.833 6.634C365.955 6.634 366.839 5.716 366.839 4.628ZM358.509 26.932V27H363.133V26.932C362.861 25.47 362.963 24.076 363.677 20.642L365.921 10.102L360.549 11.802V11.87C361.535 12.652 361.773 14.318 361.263 16.868L360.447 20.642C359.801 23.532 359.495 25.334 358.509 26.932ZM387.497 16.426C387.497 12.618 385.729 10.272 382.329 10.272C378.079 10.272 373.489 15.814 373.489 21.39C373.489 25.164 375.257 27.51 378.657 27.51C382.907 27.51 387.497 21.968 387.497 16.426ZM376.719 22.92C376.719 16.562 379.269 10.884 382.261 10.884C383.723 10.884 384.267 12.448 384.267 14.862C384.267 21.22 381.615 26.898 378.759 26.898C377.297 26.898 376.719 25.334 376.719 22.92ZM407.328 15.848L404.778 27.306L410.184 26.796V26.728C408.28 26.354 408.518 25.198 409.164 22.206L410.558 15.644C411.272 12.108 410.014 10.272 407.974 10.272C404.846 10.272 402.194 14.454 400.392 19.18L402.33 10.102L397.094 11.802V11.87C398.114 12.686 398.352 14.352 397.808 16.868L396.992 20.642C396.448 23.532 396.006 25.164 395.088 26.932V27H399.678V26.932C399.372 25.436 399.542 24.11 399.984 21.968L400.052 21.594C402.5 15.916 404.234 12.89 406.172 12.89C407.396 12.89 407.702 14.114 407.328 15.848Z" fill="#DB8B5A"/>
</svg>
