<svg width="373" height="33" viewBox="0 0 373 33" fill="none" xmlns="http://www.w3.org/2000/svg">
<path d="M3.61 27H9.492V26.932C8.948 24.892 9.016 23.838 9.458 21.084L12.756 2.69L15.51 2.792C16.7 2.792 17.89 6.09 18.978 8.81L19.284 8.742L19.454 2.112H2.488L0.278 8.674L0.618 8.81C2.522 6.362 4.97 2.894 6.296 2.792L9.084 2.656L5.752 21.084C5.31 23.77 4.8 24.926 3.61 26.932V27ZM36.8599 15.848L34.3099 27.306L39.7159 26.796V26.728C37.8459 26.388 38.0839 25.198 38.7299 22.206L40.0899 15.644C40.8039 12.108 39.5459 10.272 37.5059 10.272C34.4119 10.272 31.7599 14.386 29.9579 19.112L34.0379 0.547998L28.7339 2.248V2.316C30.0599 3.404 29.8899 5.24 29.4479 7.314L26.5919 20.642C25.9459 23.532 25.4699 25.436 24.6879 26.932V27H29.2779V26.932C28.9719 25.436 29.0739 24.11 29.5159 21.968L29.5839 21.594C32.0319 15.916 33.7659 12.89 35.7039 12.89C36.9619 12.89 37.2339 14.114 36.8599 15.848ZM53.9618 27.51C56.5798 27.51 58.8578 25.776 60.0478 22.478L59.8778 22.308C58.7898 24.246 57.3278 24.994 55.8658 24.994C54.1658 24.994 52.6358 23.94 52.6358 20.268C52.6358 19.01 52.8058 17.82 53.1118 16.664C59.7758 16.562 62.0538 14.726 62.0538 12.686C62.0538 10.68 59.7758 10.272 58.5178 10.272C53.5198 10.272 49.0998 15.814 49.0998 21.56C49.0998 25.402 51.0038 27.51 53.9618 27.51ZM58.1778 10.884C58.9938 10.884 59.4018 11.292 59.4018 12.142C59.4018 13.298 58.5518 15.406 53.2478 16.324C54.2338 13.162 56.2398 10.884 58.1778 10.884ZM91.2192 20.438L89.4512 27.306L94.7552 26.66V26.592C92.9192 25.878 92.9872 24.858 93.7012 22.24L96.7952 10.272H96.5572L95.2312 10.816C94.3812 10.442 93.3272 10.272 92.1032 10.272C85.7452 10.272 81.4612 17.004 81.4612 22.58C81.4612 25.674 82.7532 27.51 84.7592 27.51C87.3772 27.51 89.5872 24.212 91.2192 20.438ZM86.4252 25.028C85.9152 25.028 84.8952 24.756 84.8952 22.036C84.8952 17.718 87.6492 11.054 91.5252 11.054C92.3412 11.054 92.9532 11.292 93.2592 12.006L91.8652 17.208C90.4032 20.778 88.4652 25.028 86.4252 25.028ZM103.791 26.932V27H108.381V26.932C108.075 25.436 108.177 24.11 108.687 21.968L108.755 21.594C110.931 16.766 112.291 14.216 114.059 14.216C114.297 14.216 114.569 14.284 114.807 14.454H114.943L116.405 10.272C113.345 10.272 110.727 15.338 108.823 20.03L110.931 10.102L105.831 11.802V11.87C106.817 12.72 107.055 14.386 106.511 16.868L105.695 20.642C105.049 23.532 104.709 25.198 103.791 26.932ZM125.989 27.51C127.893 27.51 129.763 25.81 131.259 23.09L130.919 22.852C130.205 23.838 128.811 25.266 127.723 25.266C127.077 25.266 126.703 24.824 127.145 22.818L129.559 11.462H133.503L133.639 10.782H129.695L130.477 7.144H130.171L124.561 11.19V11.462H126.329L123.881 22.784C123.133 26.456 124.425 27.51 125.989 27.51ZM166.467 16.426C166.467 12.618 164.699 10.272 161.299 10.272C157.049 10.272 152.459 15.814 152.459 21.39C152.459 25.164 154.227 27.51 157.627 27.51C161.877 27.51 166.467 21.968 166.467 16.426ZM155.689 22.92C155.689 16.562 158.239 10.884 161.231 10.884C162.693 10.884 163.237 12.448 163.237 14.862C163.237 21.22 160.585 26.898 157.729 26.898C156.267 26.898 155.689 25.334 155.689 22.92ZM178.21 11.462L173.756 32.61H176.918L181.372 11.462H184.364L184.5 10.782H181.508L182.324 6.872C183.106 3.098 184.024 1.228 185.044 1.228C185.928 1.228 186.846 2.928 187.968 4.866L188.24 4.798L187.968 0.888C187.594 0.751999 186.914 0.547998 186.064 0.547998C182.97 0.547998 179.876 3.472 178.89 8.266L178.346 10.782H176.204L176.034 11.462H178.21ZM222.736 15.848L220.22 27.306L225.592 26.66V26.592C223.688 26.218 223.892 25.266 224.538 22.274L225.966 15.644C226.748 12.142 225.83 10.272 223.688 10.272C220.594 10.272 218.18 14.488 216.276 19.248L217.024 15.746C217.806 12.074 216.956 10.272 215.018 10.272C212.06 10.272 209.408 14.488 207.606 19.214L209.544 10.102L204.308 11.802V11.87C205.362 12.686 205.6 14.352 205.056 16.868L204.24 20.642C203.594 23.532 203.254 25.198 202.336 26.932V27H206.926V26.932C206.62 25.436 206.756 24.11 207.198 21.968L207.266 21.594C209.816 15.95 211.312 12.89 213.148 12.89C214.202 12.89 214.372 13.944 213.964 15.848L212.944 20.676C212.4 23.532 211.924 25.164 211.074 26.932V27H215.664V26.932C215.324 25.334 215.46 24.246 216.004 21.526C218.554 15.95 220.016 12.89 221.886 12.89C222.906 12.89 223.178 13.876 222.736 15.848ZM239.808 27.51C242.426 27.51 244.704 25.776 245.894 22.478L245.724 22.308C244.636 24.246 243.174 24.994 241.712 24.994C240.012 24.994 238.482 23.94 238.482 20.268C238.482 19.01 238.652 17.82 238.958 16.664C245.622 16.562 247.9 14.726 247.9 12.686C247.9 10.68 245.622 10.272 244.364 10.272C239.366 10.272 234.946 15.814 234.946 21.56C234.946 25.402 236.85 27.51 239.808 27.51ZM244.024 10.884C244.84 10.884 245.248 11.292 245.248 12.142C245.248 13.298 244.398 15.406 239.094 16.324C240.08 13.162 242.086 10.884 244.024 10.884ZM275.185 15.848L272.669 27.306L278.041 26.66V26.592C276.137 26.218 276.341 25.266 276.987 22.274L278.415 15.644C279.197 12.142 278.279 10.272 276.137 10.272C273.043 10.272 270.629 14.488 268.725 19.248L269.473 15.746C270.255 12.074 269.405 10.272 267.467 10.272C264.509 10.272 261.857 14.488 260.055 19.214L261.993 10.102L256.757 11.802V11.87C257.811 12.686 258.049 14.352 257.505 16.868L256.689 20.642C256.043 23.532 255.703 25.198 254.785 26.932V27H259.375V26.932C259.069 25.436 259.205 24.11 259.647 21.968L259.715 21.594C262.265 15.95 263.761 12.89 265.597 12.89C266.651 12.89 266.821 13.944 266.413 15.848L265.393 20.676C264.849 23.532 264.373 25.164 263.523 26.932V27H268.113V26.932C267.773 25.334 267.909 24.246 268.453 21.526C271.003 15.95 272.465 12.89 274.335 12.89C275.355 12.89 275.627 13.876 275.185 15.848ZM301.403 16.426C301.403 12.618 299.635 10.272 296.235 10.272C291.985 10.272 287.395 15.814 287.395 21.39C287.395 25.164 289.163 27.51 292.563 27.51C296.813 27.51 301.403 21.968 301.403 16.426ZM290.625 22.92C290.625 16.562 293.175 10.884 296.167 10.884C297.629 10.884 298.173 12.448 298.173 14.862C298.173 21.22 295.521 26.898 292.665 26.898C291.203 26.898 290.625 25.334 290.625 22.92ZM308.994 26.932V27H313.584V26.932C313.278 25.436 313.38 24.11 313.89 21.968L313.958 21.594C316.134 16.766 317.494 14.216 319.262 14.216C319.5 14.216 319.772 14.284 320.01 14.454H320.146L321.608 10.272C318.548 10.272 315.93 15.338 314.026 20.03L316.134 10.102L311.034 11.802V11.87C312.02 12.72 312.258 14.386 311.714 16.868L310.898 20.642C310.252 23.532 309.912 25.198 308.994 26.932ZM335.944 4.628C335.944 3.506 335.06 2.588 333.938 2.588C332.85 2.588 331.932 3.506 331.932 4.628C331.932 5.716 332.85 6.634 333.938 6.634C335.06 6.634 335.944 5.716 335.944 4.628ZM327.614 26.932V27H332.238V26.932C331.966 25.47 332.068 24.076 332.782 20.642L335.026 10.102L329.654 11.802V11.87C330.64 12.652 330.878 14.318 330.368 16.868L329.552 20.642C328.906 23.532 328.6 25.334 327.614 26.932ZM347.456 27.51C350.074 27.51 352.352 25.776 353.542 22.478L353.372 22.308C352.284 24.246 350.822 24.994 349.36 24.994C347.66 24.994 346.13 23.94 346.13 20.268C346.13 19.01 346.3 17.82 346.606 16.664C353.27 16.562 355.548 14.726 355.548 12.686C355.548 10.68 353.27 10.272 352.012 10.272C347.014 10.272 342.594 15.814 342.594 21.56C342.594 25.402 344.498 27.51 347.456 27.51ZM351.672 10.884C352.488 10.884 352.896 11.292 352.896 12.142C352.896 13.298 352.046 15.406 346.742 16.324C347.728 13.162 349.734 10.884 351.672 10.884ZM372.905 15.168L372.939 10.782C372.157 10.476 370.831 10.272 369.641 10.272C366.819 10.272 364.405 11.802 364.405 15.032C364.405 19.758 369.811 20.268 369.811 24.11C369.811 25.878 368.757 26.898 367.431 26.898C365.765 26.898 364.439 25.3 362.773 21.662L362.569 21.73L362.739 26.558C363.317 26.932 364.915 27.51 366.683 27.51C369.811 27.51 372.259 25.572 372.259 22.172C372.259 17.208 366.751 16.596 366.751 13.23C366.751 11.972 367.465 10.884 368.859 10.884C370.355 10.884 371.171 12.074 372.701 15.236L372.905 15.168Z" fill="#DB8B5A"/>
</svg>
