<svg width="647" height="17" viewBox="0 0 647 17" fill="none" xmlns="http://www.w3.org/2000/svg">
<path d="M2.8 16.16H3.42L8 6.24L8.94 16.16H9.58L15.08 4.68C15.78 3.18 16.32 2.36 17.22 1.4V1.36H14.94V1.4C15.16 2.04 15.26 3.26 14.2 5.5L10.76 12.72L10.08 4.68C9.94 3.16 10.08 1.98 10.58 1.4V1.36H6.96V1.4C7.34 2.12 7.7 2.82 7.86 4.66L7.92 5.38L4.6 12.64L3.76 4.68C3.6 3.18 3.9 1.96 4.24 1.4V1.36H0.62V1.4C1.02 2.12 1.32 2.82 1.54 4.66L2.8 16.16ZM24.492 16.3C26.032 16.3 27.372 15.28 28.072 13.34L27.972 13.24C27.332 14.38 26.472 14.82 25.612 14.82C24.612 14.82 23.712 14.2 23.712 12.04C23.712 11.3 23.812 10.6 23.992 9.92C27.912 9.86 29.252 8.78 29.252 7.58C29.252 6.4 27.912 6.16 27.172 6.16C24.232 6.16 21.632 9.42 21.632 12.8C21.632 15.06 22.752 16.3 24.492 16.3ZM26.972 6.52C27.452 6.52 27.692 6.76 27.692 7.26C27.692 7.94 27.192 9.18 24.072 9.72C24.652 7.86 25.832 6.52 26.972 6.52ZM35.8116 16H38.5116V15.96C38.3516 15.06 38.3916 14.3 38.8116 12.22L41.3116 0.439999L38.1916 1.44V1.48C38.9716 2.12 38.8716 3.2 38.6116 4.42L36.9316 12.26C36.5516 13.96 36.2716 15.08 35.8116 15.96V16ZM54.1875 12.96L54.0675 12.92C53.4075 14.28 52.5675 14.74 51.6275 14.74C50.2675 14.74 49.4875 13.7 49.4875 11.68C49.4875 8.72 51.2075 6.52 52.4275 6.52C53.3875 6.52 53.8275 7.58 54.6875 9.12L54.8675 9.08V6.48C54.6475 6.34 53.8675 6.16 52.9875 6.16C49.8275 6.16 47.4875 9.34 47.4875 12.64C47.4875 14.88 48.5675 16.3 50.5075 16.3C52.3675 16.3 53.6275 14.96 54.1875 12.96ZM70.54 9.78C70.54 7.54 69.5 6.16 67.5 6.16C65 6.16 62.3 9.42 62.3 12.7C62.3 14.92 63.34 16.3 65.34 16.3C67.84 16.3 70.54 13.04 70.54 9.78ZM64.2 13.6C64.2 9.86 65.7 6.52 67.46 6.52C68.32 6.52 68.64 7.44 68.64 8.86C68.64 12.6 67.08 15.94 65.4 15.94C64.54 15.94 64.2 15.02 64.2 13.6ZM89.8877 9.44L88.4077 16.18L91.5677 15.8V15.76C90.4477 15.54 90.5677 14.98 90.9477 13.22L91.7877 9.32C92.2477 7.26 91.7077 6.16 90.4477 6.16C88.6277 6.16 87.2077 8.64 86.0877 11.44L86.5277 9.38C86.9877 7.22 86.4877 6.16 85.3477 6.16C83.6077 6.16 82.0477 8.64 80.9877 11.42L82.1277 6.06L79.0477 7.06V7.1C79.6677 7.58 79.8077 8.56 79.4877 10.04L79.0077 12.26C78.6277 13.96 78.4277 14.94 77.8877 15.96V16H80.5877V15.96C80.4077 15.08 80.4877 14.3 80.7477 13.04L80.7877 12.82C82.2877 9.5 83.1677 7.7 84.2477 7.7C84.8677 7.7 84.9677 8.32 84.7277 9.44L84.1277 12.28C83.8077 13.96 83.5277 14.92 83.0277 15.96V16H85.7277V15.96C85.5277 15.02 85.6077 14.38 85.9277 12.78C87.4277 9.5 88.2877 7.7 89.3877 7.7C89.9877 7.7 90.1477 8.28 89.8877 9.44ZM102.812 16.3C104.352 16.3 105.692 15.28 106.392 13.34L106.292 13.24C105.652 14.38 104.792 14.82 103.932 14.82C102.932 14.82 102.032 14.2 102.032 12.04C102.032 11.3 102.132 10.6 102.312 9.92C106.232 9.86 107.572 8.78 107.572 7.58C107.572 6.4 106.232 6.16 105.492 6.16C102.552 6.16 99.9523 9.42 99.9523 12.8C99.9523 15.06 101.072 16.3 102.812 16.3ZM105.292 6.52C105.772 6.52 106.012 6.76 106.012 7.26C106.012 7.94 105.512 9.18 102.392 9.72C102.972 7.86 104.152 6.52 105.292 6.52ZM126.773 16.3C127.893 16.3 128.993 15.3 129.873 13.7L129.673 13.56C129.253 14.14 128.433 14.98 127.793 14.98C127.413 14.98 127.193 14.72 127.453 13.54L128.873 6.86H131.193L131.273 6.46H128.953L129.413 4.32H129.233L125.933 6.7V6.86H126.973L125.533 13.52C125.093 15.68 125.853 16.3 126.773 16.3ZM146.165 9.78C146.165 7.54 145.125 6.16 143.125 6.16C140.625 6.16 137.925 9.42 137.925 12.7C137.925 14.92 138.965 16.3 140.965 16.3C143.465 16.3 146.165 13.04 146.165 9.78ZM139.825 13.6C139.825 9.86 141.325 6.52 143.085 6.52C143.945 6.52 144.265 7.44 144.265 8.86C144.265 12.6 142.705 15.94 141.025 15.94C140.165 15.94 139.825 15.02 139.825 13.6ZM163.161 16H165.801L165.821 15.96C165.101 14.6 165.101 13.9 165.361 12.16L166.841 3.16L169.121 15.58H169.561L175.801 3.14L174.201 12.52C173.941 14.1 173.641 14.78 172.941 15.96L172.921 16H176.381L176.401 15.96C176.081 14.78 176.101 14.12 176.361 12.52L177.701 4.64C177.961 2.98 178.361 2.36 179.601 1.4V1.36H176.161L170.661 12.4L168.601 1.36H165.421L165.401 1.4C166.261 2.38 166.341 2.98 166.121 4.64L166.201 4.36L164.861 12.16C164.541 13.9 164.261 14.6 163.161 15.96V16ZM188.308 16.3C189.848 16.3 191.188 15.28 191.888 13.34L191.788 13.24C191.148 14.38 190.288 14.82 189.428 14.82C188.428 14.82 187.528 14.2 187.528 12.04C187.528 11.3 187.628 10.6 187.808 9.92C191.728 9.86 193.068 8.78 193.068 7.58C193.068 6.4 191.728 6.16 190.988 6.16C188.048 6.16 185.448 9.42 185.448 12.8C185.448 15.06 186.568 16.3 188.308 16.3ZM190.788 6.52C191.268 6.52 191.508 6.76 191.508 7.26C191.508 7.94 191.008 9.18 187.888 9.72C188.468 7.86 189.648 6.52 190.788 6.52ZM202.69 14.86C202.33 14.86 201.75 14.7 201.75 13.16C201.75 10.38 203.55 6.62 205.97 6.62C206.43 6.62 206.79 6.7 206.97 7.08L206.43 9.6C205.01 13.18 203.83 14.86 202.69 14.86ZM206.15 11.26H206.17L205.07 16.18L208.23 15.7V15.66C207.11 15.44 207.23 14.86 207.55 13.2L210.25 0.439999L207.13 1.44V1.48C207.91 2.12 207.81 3.2 207.55 4.42L207.17 6.22C206.89 6.18 206.59 6.16 206.29 6.16C202.29 6.16 199.87 10.12 199.87 13.58C199.87 15.42 200.61 16.3 201.73 16.3C203.51 16.3 205.09 13.9 206.15 11.26ZM221.178 2.84C221.178 2.18 220.658 1.64 219.998 1.64C219.358 1.64 218.818 2.18 218.818 2.84C218.818 3.48 219.358 4.02 219.998 4.02C220.658 4.02 221.178 3.48 221.178 2.84ZM216.278 15.96V16H218.998V15.96C218.838 15.1 218.898 14.28 219.318 12.26L220.638 6.06L217.478 7.06V7.1C218.058 7.56 218.198 8.54 217.898 10.04L217.418 12.26C217.038 13.96 216.858 15.02 216.278 15.96ZM233.872 9.04L233.892 6.46C233.432 6.28 232.652 6.16 231.952 6.16C230.292 6.16 228.872 7.06 228.872 8.96C228.872 11.74 232.052 12.04 232.052 14.3C232.052 15.34 231.432 15.94 230.652 15.94C229.672 15.94 228.892 15 227.912 12.86L227.792 12.9L227.892 15.74C228.232 15.96 229.172 16.3 230.212 16.3C232.052 16.3 233.492 15.16 233.492 13.16C233.492 10.24 230.252 9.88 230.252 7.9C230.252 7.16 230.672 6.52 231.492 6.52C232.372 6.52 232.852 7.22 233.752 9.08L233.872 9.04ZM243.613 16.3C244.733 16.3 245.833 15.3 246.713 13.7L246.513 13.56C246.093 14.14 245.273 14.98 244.633 14.98C244.253 14.98 244.033 14.72 244.293 13.54L245.713 6.86H248.033L248.113 6.46H245.793L246.253 4.32H246.073L242.773 6.7V6.86H243.813L242.373 13.52C241.933 15.68 242.693 16.3 243.613 16.3ZM263.005 9.78C263.005 7.54 261.965 6.16 259.965 6.16C257.465 6.16 254.765 9.42 254.765 12.7C254.765 14.92 255.805 16.3 257.805 16.3C260.305 16.3 263.005 13.04 263.005 9.78ZM256.665 13.6C256.665 9.86 258.165 6.52 259.925 6.52C260.785 6.52 261.105 7.44 261.105 8.86C261.105 12.6 259.545 15.94 257.865 15.94C257.005 15.94 256.665 15.02 256.665 13.6ZM277.553 9.44L276.053 16.18L279.233 15.88V15.84C278.113 15.62 278.253 14.94 278.633 13.18L279.453 9.32C279.873 7.24 279.133 6.16 277.933 6.16C276.093 6.16 274.533 8.62 273.473 11.4L274.613 6.06L271.533 7.06V7.1C272.133 7.58 272.273 8.56 271.953 10.04L271.473 12.26C271.153 13.96 270.893 14.92 270.353 15.96V16H273.053V15.96C272.873 15.08 272.973 14.3 273.233 13.04L273.273 12.82C274.713 9.48 275.733 7.7 276.873 7.7C277.593 7.7 277.773 8.42 277.553 9.44ZM290.492 16.3C292.032 16.3 293.372 15.28 294.072 13.34L293.972 13.24C293.332 14.38 292.472 14.82 291.612 14.82C290.612 14.82 289.712 14.2 289.712 12.04C289.712 11.3 289.812 10.6 289.992 9.92C293.912 9.86 295.252 8.78 295.252 7.58C295.252 6.4 293.912 6.16 293.172 6.16C290.232 6.16 287.632 9.42 287.632 12.8C287.632 15.06 288.752 16.3 290.492 16.3ZM292.972 6.52C293.452 6.52 293.692 6.76 293.692 7.26C293.692 7.94 293.192 9.18 290.072 9.72C290.652 7.86 291.832 6.52 292.972 6.52ZM313.713 9.12L313.933 16.2H314.253L318.213 9.54L318.333 16.2H318.633L324.333 6.5V6.46H321.873V6.5C322.693 7.2 322.753 8.26 321.413 10.5L320.133 12.76L320.053 6.46H317.293V6.5C317.793 7.04 318.133 7.54 318.193 8.72L315.713 12.86L315.573 6.46H312.893V6.5C313.433 7.1 313.653 7.66 313.713 9.12ZM337.464 9.44L335.964 16.18L339.144 15.88V15.84C338.044 15.64 338.184 14.94 338.564 13.18L339.364 9.32C339.784 7.24 339.044 6.16 337.844 6.16C336.024 6.16 334.464 8.58 333.404 11.36L335.804 0.439999L332.684 1.44V1.48C333.464 2.12 333.364 3.2 333.104 4.42L331.424 12.26C331.044 13.96 330.764 15.08 330.304 15.96V16H333.004V15.96C332.824 15.08 332.884 14.3 333.144 13.04L333.184 12.82C334.624 9.48 335.644 7.7 336.784 7.7C337.524 7.7 337.684 8.42 337.464 9.44ZM350.406 16.3C351.946 16.3 353.286 15.28 353.986 13.34L353.886 13.24C353.246 14.38 352.386 14.82 351.526 14.82C350.526 14.82 349.626 14.2 349.626 12.04C349.626 11.3 349.726 10.6 349.906 9.92C353.826 9.86 355.166 8.78 355.166 7.58C355.166 6.4 353.826 6.16 353.086 6.16C350.146 6.16 347.546 9.42 347.546 12.8C347.546 15.06 348.666 16.3 350.406 16.3ZM352.886 6.52C353.366 6.52 353.606 6.76 353.606 7.26C353.606 7.94 353.106 9.18 349.986 9.72C350.566 7.86 351.746 6.52 352.886 6.52ZM362.099 15.96V16H364.799V15.96C364.619 15.08 364.679 14.3 364.979 13.04L365.019 12.82C366.299 9.98 367.099 8.48 368.139 8.48C368.279 8.48 368.439 8.52 368.579 8.62H368.659L369.519 6.16C367.719 6.16 366.179 9.14 365.059 11.9L366.299 6.06L363.299 7.06V7.1C363.879 7.6 364.019 8.58 363.699 10.04L363.219 12.26C362.839 13.96 362.639 14.94 362.099 15.96ZM378.879 16.3C380.419 16.3 381.759 15.28 382.459 13.34L382.359 13.24C381.719 14.38 380.859 14.82 379.999 14.82C378.999 14.82 378.099 14.2 378.099 12.04C378.099 11.3 378.199 10.6 378.379 9.92C382.299 9.86 383.639 8.78 383.639 7.58C383.639 6.4 382.299 6.16 381.559 6.16C378.619 6.16 376.019 9.42 376.019 12.8C376.019 15.06 377.139 16.3 378.879 16.3ZM381.359 6.52C381.839 6.52 382.079 6.76 382.079 7.26C382.079 7.94 381.579 9.18 378.459 9.72C379.039 7.86 380.219 6.52 381.359 6.52ZM402.84 16.3C403.96 16.3 405.06 15.3 405.94 13.7L405.74 13.56C405.32 14.14 404.5 14.98 403.86 14.98C403.48 14.98 403.26 14.72 403.52 13.54L404.94 6.86H407.26L407.34 6.46H405.02L405.48 4.32H405.3L402 6.7V6.86H403.04L401.6 13.52C401.16 15.68 401.92 16.3 402.84 16.3ZM418.807 2.84C418.807 2.18 418.287 1.64 417.627 1.64C416.987 1.64 416.447 2.18 416.447 2.84C416.447 3.48 416.987 4.02 417.627 4.02C418.287 4.02 418.807 3.48 418.807 2.84ZM413.907 15.96V16H416.627V15.96C416.467 15.1 416.527 14.28 416.947 12.26L418.267 6.06L415.107 7.06V7.1C415.687 7.56 415.827 8.54 415.527 10.04L415.047 12.26C414.667 13.96 414.487 15.02 413.907 15.96ZM437.341 9.44L435.861 16.18L439.021 15.8V15.76C437.901 15.54 438.021 14.98 438.401 13.22L439.241 9.32C439.701 7.26 439.161 6.16 437.901 6.16C436.081 6.16 434.661 8.64 433.541 11.44L433.981 9.38C434.441 7.22 433.941 6.16 432.801 6.16C431.061 6.16 429.501 8.64 428.441 11.42L429.581 6.06L426.501 7.06V7.1C427.121 7.58 427.261 8.56 426.941 10.04L426.461 12.26C426.081 13.96 425.881 14.94 425.341 15.96V16H428.041V15.96C427.861 15.08 427.941 14.3 428.201 13.04L428.241 12.82C429.741 9.5 430.621 7.7 431.701 7.7C432.321 7.7 432.421 8.32 432.181 9.44L431.581 12.28C431.261 13.96 430.981 14.92 430.481 15.96V16H433.181V15.96C432.981 15.02 433.061 14.38 433.381 12.78C434.881 9.5 435.741 7.7 436.841 7.7C437.441 7.7 437.601 8.28 437.341 9.44ZM450.265 16.3C451.805 16.3 453.145 15.28 453.845 13.34L453.745 13.24C453.105 14.38 452.245 14.82 451.385 14.82C450.385 14.82 449.485 14.2 449.485 12.04C449.485 11.3 449.585 10.6 449.765 9.92C453.685 9.86 455.025 8.78 455.025 7.58C455.025 6.4 453.685 6.16 452.945 6.16C450.005 6.16 447.405 9.42 447.405 12.8C447.405 15.06 448.525 16.3 450.265 16.3ZM452.745 6.52C453.225 6.52 453.465 6.76 453.465 7.26C453.465 7.94 452.965 9.18 449.845 9.72C450.425 7.86 451.605 6.52 452.745 6.52ZM478.106 9.04L478.126 6.46C477.666 6.28 476.886 6.16 476.186 6.16C474.526 6.16 473.106 7.06 473.106 8.96C473.106 11.74 476.286 12.04 476.286 14.3C476.286 15.34 475.666 15.94 474.886 15.94C473.906 15.94 473.126 15 472.146 12.86L472.026 12.9L472.126 15.74C472.466 15.96 473.406 16.3 474.446 16.3C476.286 16.3 477.726 15.16 477.726 13.16C477.726 10.24 474.486 9.88 474.486 7.9C474.486 7.16 474.906 6.52 475.726 6.52C476.606 6.52 477.086 7.22 477.986 9.08L478.106 9.04ZM487.847 16.3C488.967 16.3 490.067 15.3 490.947 13.7L490.747 13.56C490.327 14.14 489.507 14.98 488.867 14.98C488.487 14.98 488.267 14.72 488.527 13.54L489.947 6.86H492.267L492.347 6.46H490.027L490.487 4.32H490.307L487.007 6.7V6.86H488.047L486.607 13.52C486.167 15.68 486.927 16.3 487.847 16.3ZM504.739 12.14L503.699 16.18L506.819 15.8V15.76C505.739 15.34 505.779 14.74 506.199 13.2L508.019 6.16H507.879L507.099 6.48C506.599 6.26 505.979 6.16 505.259 6.16C501.519 6.16 498.999 10.12 498.999 13.4C498.999 15.22 499.759 16.3 500.939 16.3C502.479 16.3 503.779 14.36 504.739 12.14ZM501.919 14.84C501.619 14.84 501.019 14.68 501.019 13.08C501.019 10.54 502.639 6.62 504.919 6.62C505.399 6.62 505.759 6.76 505.939 7.18L505.119 10.24C504.259 12.34 503.119 14.84 501.919 14.84ZM522.217 9.44L520.717 16.18L523.897 15.88V15.84C522.777 15.62 522.917 14.94 523.297 13.18L524.117 9.32C524.537 7.24 523.797 6.16 522.597 6.16C520.757 6.16 519.197 8.62 518.137 11.4L519.277 6.06L516.197 7.06V7.1C516.797 7.58 516.937 8.56 516.617 10.04L516.137 12.26C515.817 13.96 515.557 14.92 515.017 15.96V16H517.717V15.96C517.537 15.08 517.637 14.3 517.897 13.04L517.937 12.82C519.377 9.48 520.397 7.7 521.537 7.7C522.257 7.7 522.437 8.42 522.217 9.44ZM535.018 14.86C534.658 14.86 534.078 14.7 534.078 13.16C534.078 10.38 535.878 6.62 538.298 6.62C538.758 6.62 539.118 6.7 539.298 7.08L538.758 9.6C537.338 13.18 536.158 14.86 535.018 14.86ZM538.478 11.26H538.498L537.398 16.18L540.558 15.7V15.66C539.438 15.44 539.558 14.86 539.878 13.2L542.578 0.439999L539.458 1.44V1.48C540.238 2.12 540.138 3.2 539.878 4.42L539.498 6.22C539.218 6.18 538.918 6.16 538.618 6.16C534.618 6.16 532.198 10.12 532.198 13.58C532.198 15.42 532.938 16.3 534.058 16.3C535.838 16.3 537.418 13.9 538.478 11.26ZM554.981 9.04L555.001 6.46C554.541 6.28 553.761 6.16 553.061 6.16C551.401 6.16 549.981 7.06 549.981 8.96C549.981 11.74 553.161 12.04 553.161 14.3C553.161 15.34 552.541 15.94 551.761 15.94C550.781 15.94 550.001 15 549.021 12.86L548.901 12.9L549.001 15.74C549.341 15.96 550.281 16.3 551.321 16.3C553.161 16.3 554.601 15.16 554.601 13.16C554.601 10.24 551.361 9.88 551.361 7.9C551.361 7.16 551.781 6.52 552.601 6.52C553.481 6.52 553.961 7.22 554.861 9.08L554.981 9.04ZM578.591 9.04L578.611 6.46C578.151 6.28 577.371 6.16 576.671 6.16C575.011 6.16 573.591 7.06 573.591 8.96C573.591 11.74 576.771 12.04 576.771 14.3C576.771 15.34 576.151 15.94 575.371 15.94C574.391 15.94 573.611 15 572.631 12.86L572.511 12.9L572.611 15.74C572.951 15.96 573.891 16.3 574.931 16.3C576.771 16.3 578.211 15.16 578.211 13.16C578.211 10.24 574.971 9.88 574.971 7.9C574.971 7.16 575.391 6.52 576.211 6.52C577.091 6.52 577.571 7.22 578.471 9.08L578.591 9.04ZM588.332 16.3C589.452 16.3 590.552 15.3 591.432 13.7L591.232 13.56C590.812 14.14 589.992 14.98 589.352 14.98C588.972 14.98 588.752 14.72 589.012 13.54L590.432 6.86H592.752L592.832 6.46H590.512L590.972 4.32H590.792L587.492 6.7V6.86H588.532L587.092 13.52C586.652 15.68 587.412 16.3 588.332 16.3ZM604.299 2.84C604.299 2.18 603.779 1.64 603.119 1.64C602.479 1.64 601.939 2.18 601.939 2.84C601.939 3.48 602.479 4.02 603.119 4.02C603.779 4.02 604.299 3.48 604.299 2.84ZM599.399 15.96V16H602.119V15.96C601.959 15.1 602.019 14.28 602.439 12.26L603.759 6.06L600.599 7.06V7.1C601.179 7.56 601.319 8.54 601.019 10.04L600.539 12.26C600.159 13.96 599.979 15.02 599.399 15.96ZM610.753 16H613.453V15.96C613.293 15.06 613.333 14.3 613.753 12.22L616.253 0.439999L613.133 1.44V1.48C613.913 2.12 613.813 3.2 613.553 4.42L611.873 12.26C611.493 13.96 611.213 15.08 610.753 15.96V16ZM621.991 16H624.691V15.96C624.531 15.06 624.571 14.3 624.991 12.22L627.491 0.439999L624.371 1.44V1.48C625.151 2.12 625.051 3.2 624.791 4.42L623.111 12.26C622.731 13.96 622.451 15.08 621.991 15.96V16ZM635.017 16.1C635.717 16.1 636.337 15.48 636.337 14.78C636.337 14 635.717 13.44 635.017 13.44C634.297 13.44 633.697 14 633.697 14.78C633.697 15.48 634.297 16.1 635.017 16.1ZM639.997 16.1C640.697 16.1 641.317 15.48 641.317 14.78C641.317 14 640.697 13.44 639.997 13.44C639.277 13.44 638.677 14 638.677 14.78C638.677 15.48 639.277 16.1 639.997 16.1ZM644.977 16.1C645.677 16.1 646.297 15.48 646.297 14.78C646.297 14 645.677 13.44 644.977 13.44C644.257 13.44 643.657 14 643.657 14.78C643.657 15.48 644.257 16.1 644.977 16.1Z" fill="#DB8B5A"/>
</svg>
