<svg width="306" height="35" viewBox="0 0 306 35" fill="none" xmlns="http://www.w3.org/2000/svg">
<path d="M3.61 27H9.492V26.932C8.948 24.892 9.016 23.838 9.458 21.084L12.756 2.69L15.51 2.792C16.7 2.792 17.89 6.09 18.978 8.81L19.284 8.742L19.454 2.112H2.488L0.278 8.674L0.618 8.81C2.522 6.362 4.97 2.894 6.296 2.792L9.084 2.656L5.752 21.084C5.31 23.77 4.8 24.926 3.61 26.932V27ZM36.8599 15.848L34.3099 27.306L39.7159 26.796V26.728C37.8459 26.388 38.0839 25.198 38.7299 22.206L40.0899 15.644C40.8039 12.108 39.5459 10.272 37.5059 10.272C34.4119 10.272 31.7599 14.386 29.9579 19.112L34.0379 0.547998L28.7339 2.248V2.316C30.0599 3.404 29.8899 5.24 29.4479 7.314L26.5919 20.642C25.9459 23.532 25.4699 25.436 24.6879 26.932V27H29.2779V26.932C28.9719 25.436 29.0739 24.11 29.5159 21.968L29.5839 21.594C32.0319 15.916 33.7659 12.89 35.7039 12.89C36.9619 12.89 37.2339 14.114 36.8599 15.848ZM53.9618 27.51C56.5798 27.51 58.8578 25.776 60.0478 22.478L59.8778 22.308C58.7898 24.246 57.3278 24.994 55.8658 24.994C54.1658 24.994 52.6358 23.94 52.6358 20.268C52.6358 19.01 52.8058 17.82 53.1118 16.664C59.7758 16.562 62.0538 14.726 62.0538 12.686C62.0538 10.68 59.7758 10.272 58.5178 10.272C53.5198 10.272 49.0998 15.814 49.0998 21.56C49.0998 25.402 51.0038 27.51 53.9618 27.51ZM58.1778 10.884C58.9938 10.884 59.4018 11.292 59.4018 12.142C59.4018 13.298 58.5518 15.406 53.2478 16.324C54.2338 13.162 56.2398 10.884 58.1778 10.884ZM91.2192 20.438L89.4512 27.306L94.7552 26.66V26.592C92.9192 25.878 92.9872 24.858 93.7012 22.24L96.7952 10.272H96.5572L95.2312 10.816C94.3812 10.442 93.3272 10.272 92.1032 10.272C85.7452 10.272 81.4612 17.004 81.4612 22.58C81.4612 25.674 82.7532 27.51 84.7592 27.51C87.3772 27.51 89.5872 24.212 91.2192 20.438ZM86.4252 25.028C85.9152 25.028 84.8952 24.756 84.8952 22.036C84.8952 17.718 87.6492 11.054 91.5252 11.054C92.3412 11.054 92.9532 11.292 93.2592 12.006L91.8652 17.208C90.4032 20.778 88.4652 25.028 86.4252 25.028ZM103.791 26.932V27H108.381V26.932C108.075 25.436 108.177 24.11 108.687 21.968L108.755 21.594C110.931 16.766 112.291 14.216 114.059 14.216C114.297 14.216 114.569 14.284 114.807 14.454H114.943L116.405 10.272C113.345 10.272 110.727 15.338 108.823 20.03L110.931 10.102L105.831 11.802V11.87C106.817 12.72 107.055 14.386 106.511 16.868L105.695 20.642C105.049 23.532 104.709 25.198 103.791 26.932ZM125.989 27.51C127.893 27.51 129.763 25.81 131.259 23.09L130.919 22.852C130.205 23.838 128.811 25.266 127.723 25.266C127.077 25.266 126.703 24.824 127.145 22.818L129.559 11.462H133.503L133.639 10.782H129.695L130.477 7.144H130.171L124.561 11.19V11.462H126.329L123.881 22.784C123.133 26.456 124.425 27.51 125.989 27.51ZM166.467 16.426C166.467 12.618 164.699 10.272 161.299 10.272C157.049 10.272 152.459 15.814 152.459 21.39C152.459 25.164 154.227 27.51 157.627 27.51C161.877 27.51 166.467 21.968 166.467 16.426ZM155.689 22.92C155.689 16.562 158.239 10.884 161.231 10.884C162.693 10.884 163.237 12.448 163.237 14.862C163.237 21.22 160.585 26.898 157.729 26.898C156.267 26.898 155.689 25.334 155.689 22.92ZM178.21 11.462L173.756 32.61H176.918L181.372 11.462H184.364L184.5 10.782H181.508L182.324 6.872C183.106 3.098 184.024 1.228 185.044 1.228C185.928 1.228 186.846 2.928 187.968 4.866L188.24 4.798L187.968 0.888C187.594 0.751999 186.914 0.547998 186.064 0.547998C182.97 0.547998 179.876 3.472 178.89 8.266L178.346 10.782H176.204L176.034 11.462H178.21ZM202.2 27H206.79V26.932C206.518 25.402 206.586 24.11 207.3 20.574L211.55 0.547998L206.246 2.248V2.316C207.572 3.404 207.402 5.24 206.96 7.314L204.104 20.642C203.458 23.532 202.982 25.436 202.2 26.932V27ZM225.003 4.628C225.003 3.506 224.119 2.588 222.997 2.588C221.909 2.588 220.991 3.506 220.991 4.628C220.991 5.716 221.909 6.634 222.997 6.634C224.119 6.634 225.003 5.716 225.003 4.628ZM216.673 26.932V27H221.297V26.932C221.025 25.47 221.127 24.076 221.841 20.642L224.085 10.102L218.713 11.802V11.87C219.699 12.652 219.937 14.318 219.427 16.868L218.611 20.642C217.965 23.532 217.659 25.334 216.673 26.932ZM234.127 15.304L234.501 27.34H235.011L245.721 10.85V10.782H241.403V10.85C243.069 11.938 242.763 13.842 240.315 17.65L237.595 21.968L237.289 10.782H232.767V10.85C233.855 11.836 234.127 12.822 234.127 15.304ZM259.555 4.628C259.555 3.506 258.671 2.588 257.549 2.588C256.461 2.588 255.543 3.506 255.543 4.628C255.543 5.716 256.461 6.634 257.549 6.634C258.671 6.634 259.555 5.716 259.555 4.628ZM251.225 26.932V27H255.849V26.932C255.577 25.47 255.679 24.076 256.393 20.642L258.637 10.102L253.265 11.802V11.87C254.251 12.652 254.489 14.318 253.979 16.868L253.163 20.642C252.517 23.532 252.211 25.334 251.225 26.932ZM278.003 15.848L275.453 27.306L280.859 26.796V26.728C278.955 26.354 279.193 25.198 279.839 22.206L281.233 15.644C281.947 12.108 280.689 10.272 278.649 10.272C275.521 10.272 272.869 14.454 271.067 19.18L273.005 10.102L267.769 11.802V11.87C268.789 12.686 269.027 14.352 268.483 16.868L267.667 20.642C267.123 23.532 266.681 25.164 265.763 26.932V27H270.353V26.932C270.047 25.436 270.217 24.11 270.659 21.968L270.727 21.594C273.175 15.916 274.909 12.89 276.847 12.89C278.071 12.89 278.377 14.114 278.003 15.848ZM294.187 18.568C294.187 14.624 296.023 10.884 297.995 10.884C299.049 10.884 299.389 11.836 299.389 13.74C299.389 17.684 297.553 21.424 295.581 21.424C294.527 21.424 294.187 20.472 294.187 18.568ZM301.837 29.108C301.837 26.15 298.947 25.64 296.635 25.096C294.289 24.552 292.555 24.212 292.555 23.056C292.555 22.512 292.929 22.036 293.711 21.628C294.255 21.9 294.867 22.036 295.581 22.036C298.879 22.036 302.449 18.602 302.449 14.998C302.449 13.536 301.871 12.21 300.817 11.292L304.761 12.38H304.897L305.577 9.694L305.543 9.66L300.307 10.884C299.661 10.51 298.913 10.272 297.995 10.272C294.731 10.272 291.127 13.706 291.127 17.31C291.127 18.976 291.909 20.574 293.303 21.424C291.773 21.866 290.243 23.022 290.243 24.688C290.243 26.014 290.991 26.694 292.181 27.204C289.494 27.646 286.876 29.108 286.876 31.318C286.876 33.596 289.665 34.684 293.201 34.684C298.471 34.684 301.837 32.236 301.837 29.108ZM294.187 33.698C291.025 33.698 289.733 32.542 289.733 30.774C289.733 29.176 290.787 28.02 292.691 27.374C293.507 27.68 294.459 27.816 295.377 28.054C297.655 28.496 299.831 28.734 299.831 30.502C299.831 32.372 297.621 33.698 294.187 33.698Z" fill="#DB8B5A"/>
</svg>
