<svg width="333" height="35" viewBox="0 0 333 35" fill="none" xmlns="http://www.w3.org/2000/svg">
<path d="M3.61 27H9.492V26.932C8.948 24.892 9.016 23.838 9.458 21.084L12.756 2.69L15.51 2.792C16.7 2.792 17.89 6.09 18.978 8.81L19.284 8.742L19.454 2.112H2.488L0.278 8.674L0.618 8.81C2.522 6.362 4.97 2.894 6.296 2.792L9.084 2.656L5.752 21.084C5.31 23.77 4.8 24.926 3.61 26.932V27ZM36.8599 15.848L34.3099 27.306L39.7159 26.796V26.728C37.8459 26.388 38.0839 25.198 38.7299 22.206L40.0899 15.644C40.8039 12.108 39.5459 10.272 37.5059 10.272C34.4119 10.272 31.7599 14.386 29.9579 19.112L34.0379 0.547998L28.7339 2.248V2.316C30.0599 3.404 29.8899 5.24 29.4479 7.314L26.5919 20.642C25.9459 23.532 25.4699 25.436 24.6879 26.932V27H29.2779V26.932C28.9719 25.436 29.0739 24.11 29.5159 21.968L29.5839 21.594C32.0319 15.916 33.7659 12.89 35.7039 12.89C36.9619 12.89 37.2339 14.114 36.8599 15.848ZM53.9618 27.51C56.5798 27.51 58.8578 25.776 60.0478 22.478L59.8778 22.308C58.7898 24.246 57.3278 24.994 55.8658 24.994C54.1658 24.994 52.6358 23.94 52.6358 20.268C52.6358 19.01 52.8058 17.82 53.1118 16.664C59.7758 16.562 62.0538 14.726 62.0538 12.686C62.0538 10.68 59.7758 10.272 58.5178 10.272C53.5198 10.272 49.0998 15.814 49.0998 21.56C49.0998 25.402 51.0038 27.51 53.9618 27.51ZM58.1778 10.884C58.9938 10.884 59.4018 11.292 59.4018 12.142C59.4018 13.298 58.5518 15.406 53.2478 16.324C54.2338 13.162 56.2398 10.884 58.1778 10.884ZM91.2192 20.438L89.4512 27.306L94.7552 26.66V26.592C92.9192 25.878 92.9872 24.858 93.7012 22.24L96.7952 10.272H96.5572L95.2312 10.816C94.3812 10.442 93.3272 10.272 92.1032 10.272C85.7452 10.272 81.4612 17.004 81.4612 22.58C81.4612 25.674 82.7532 27.51 84.7592 27.51C87.3772 27.51 89.5872 24.212 91.2192 20.438ZM86.4252 25.028C85.9152 25.028 84.8952 24.756 84.8952 22.036C84.8952 17.718 87.6492 11.054 91.5252 11.054C92.3412 11.054 92.9532 11.292 93.2592 12.006L91.8652 17.208C90.4032 20.778 88.4652 25.028 86.4252 25.028ZM103.791 26.932V27H108.381V26.932C108.075 25.436 108.177 24.11 108.687 21.968L108.755 21.594C110.931 16.766 112.291 14.216 114.059 14.216C114.297 14.216 114.569 14.284 114.807 14.454H114.943L116.405 10.272C113.345 10.272 110.727 15.338 108.823 20.03L110.931 10.102L105.831 11.802V11.87C106.817 12.72 107.055 14.386 106.511 16.868L105.695 20.642C105.049 23.532 104.709 25.198 103.791 26.932ZM125.989 27.51C127.893 27.51 129.763 25.81 131.259 23.09L130.919 22.852C130.205 23.838 128.811 25.266 127.723 25.266C127.077 25.266 126.703 24.824 127.145 22.818L129.559 11.462H133.503L133.639 10.782H129.695L130.477 7.144H130.171L124.561 11.19V11.462H126.329L123.881 22.784C123.133 26.456 124.425 27.51 125.989 27.51ZM166.467 16.426C166.467 12.618 164.699 10.272 161.299 10.272C157.049 10.272 152.459 15.814 152.459 21.39C152.459 25.164 154.227 27.51 157.627 27.51C161.877 27.51 166.467 21.968 166.467 16.426ZM155.689 22.92C155.689 16.562 158.239 10.884 161.231 10.884C162.693 10.884 163.237 12.448 163.237 14.862C163.237 21.22 160.585 26.898 157.729 26.898C156.267 26.898 155.689 25.334 155.689 22.92ZM178.21 11.462L173.756 32.61H176.918L181.372 11.462H184.364L184.5 10.782H181.508L182.324 6.872C183.106 3.098 184.024 1.228 185.044 1.228C185.928 1.228 186.846 2.928 187.968 4.866L188.24 4.798L187.968 0.888C187.594 0.751999 186.914 0.547998 186.064 0.547998C182.97 0.547998 179.876 3.472 178.89 8.266L178.346 10.782H176.204L176.034 11.462H178.21ZM206.212 27.51C208.116 27.51 209.986 25.81 211.482 23.09L211.142 22.852C210.428 23.838 209.034 25.266 207.946 25.266C207.3 25.266 206.926 24.824 207.368 22.818L209.782 11.462H213.726L213.862 10.782H209.918L210.7 7.144H210.394L204.784 11.19V11.462H206.552L204.104 22.784C203.356 26.456 204.648 27.51 206.212 27.51ZM230.028 20.438L228.26 27.306L233.564 26.66V26.592C231.728 25.878 231.796 24.858 232.51 22.24L235.604 10.272H235.366L234.04 10.816C233.19 10.442 232.136 10.272 230.912 10.272C224.554 10.272 220.27 17.004 220.27 22.58C220.27 25.674 221.562 27.51 223.568 27.51C226.186 27.51 228.396 24.212 230.028 20.438ZM225.234 25.028C224.724 25.028 223.704 24.756 223.704 22.036C223.704 17.718 226.458 11.054 230.334 11.054C231.15 11.054 231.762 11.292 232.068 12.006L230.674 17.208C229.212 20.778 227.274 25.028 225.234 25.028ZM253.071 15.168L253.105 10.782C252.323 10.476 250.997 10.272 249.807 10.272C246.985 10.272 244.571 11.802 244.571 15.032C244.571 19.758 249.977 20.268 249.977 24.11C249.977 25.878 248.923 26.898 247.597 26.898C245.931 26.898 244.605 25.3 242.939 21.662L242.735 21.73L242.905 26.558C243.483 26.932 245.081 27.51 246.849 27.51C249.977 27.51 252.425 25.572 252.425 22.172C252.425 17.208 246.917 16.596 246.917 13.23C246.917 11.972 247.631 10.884 249.025 10.884C250.521 10.884 251.337 12.074 252.867 15.236L253.071 15.168ZM264.731 27.51C266.635 27.51 268.505 25.81 270.001 23.09L269.661 22.852C268.947 23.838 267.553 25.266 266.465 25.266C265.819 25.266 265.445 24.824 265.887 22.818L268.301 11.462H272.245L272.381 10.782H268.437L269.219 7.144H268.913L263.303 11.19V11.462H265.071L262.623 22.784C261.875 26.456 263.167 27.51 264.731 27.51ZM286.975 4.628C286.975 3.506 286.091 2.588 284.969 2.588C283.881 2.588 282.963 3.506 282.963 4.628C282.963 5.716 283.881 6.634 284.969 6.634C286.091 6.634 286.975 5.716 286.975 4.628ZM278.645 26.932V27H283.269V26.932C282.997 25.47 283.099 24.076 283.813 20.642L286.057 10.102L280.685 11.802V11.87C281.671 12.652 281.909 14.318 281.399 16.868L280.583 20.642C279.937 23.532 279.631 25.334 278.645 26.932ZM305.423 15.848L302.873 27.306L308.279 26.796V26.728C306.375 26.354 306.613 25.198 307.259 22.206L308.653 15.644C309.367 12.108 308.109 10.272 306.069 10.272C302.941 10.272 300.289 14.454 298.487 19.18L300.425 10.102L295.189 11.802V11.87C296.209 12.686 296.447 14.352 295.903 16.868L295.087 20.642C294.543 23.532 294.101 25.164 293.183 26.932V27H297.773V26.932C297.467 25.436 297.637 24.11 298.079 21.968L298.147 21.594C300.595 15.916 302.329 12.89 304.267 12.89C305.491 12.89 305.797 14.114 305.423 15.848ZM321.606 18.568C321.606 14.624 323.442 10.884 325.414 10.884C326.468 10.884 326.808 11.836 326.808 13.74C326.808 17.684 324.972 21.424 323 21.424C321.946 21.424 321.606 20.472 321.606 18.568ZM329.256 29.108C329.256 26.15 326.366 25.64 324.054 25.096C321.708 24.552 319.974 24.212 319.974 23.056C319.974 22.512 320.348 22.036 321.13 21.628C321.674 21.9 322.286 22.036 323 22.036C326.298 22.036 329.868 18.602 329.868 14.998C329.868 13.536 329.29 12.21 328.236 11.292L332.18 12.38H332.316L332.996 9.694L332.962 9.66L327.726 10.884C327.08 10.51 326.332 10.272 325.414 10.272C322.15 10.272 318.546 13.706 318.546 17.31C318.546 18.976 319.328 20.574 320.722 21.424C319.192 21.866 317.662 23.022 317.662 24.688C317.662 26.014 318.41 26.694 319.6 27.204C316.914 27.646 314.296 29.108 314.296 31.318C314.296 33.596 317.084 34.684 320.62 34.684C325.89 34.684 329.256 32.236 329.256 29.108ZM321.606 33.698C318.444 33.698 317.152 32.542 317.152 30.774C317.152 29.176 318.206 28.02 320.11 27.374C320.926 27.68 321.878 27.816 322.796 28.054C325.074 28.496 327.25 28.734 327.25 30.502C327.25 32.372 325.04 33.698 321.606 33.698Z" fill="#DB8B5A"/>
</svg>
