<svg width="392" height="33" viewBox="0 0 392 33" fill="none" xmlns="http://www.w3.org/2000/svg">
<path d="M3.61 27H9.492V26.932C8.948 24.892 9.016 23.838 9.458 21.084L12.756 2.69L15.51 2.792C16.7 2.792 17.89 6.09 18.978 8.81L19.284 8.742L19.454 2.112H2.488L0.278 8.674L0.618 8.81C2.522 6.362 4.97 2.894 6.296 2.792L9.084 2.656L5.752 21.084C5.31 23.77 4.8 24.926 3.61 26.932V27ZM36.8599 15.848L34.3099 27.306L39.7159 26.796V26.728C37.8459 26.388 38.0839 25.198 38.7299 22.206L40.0899 15.644C40.8039 12.108 39.5459 10.272 37.5059 10.272C34.4119 10.272 31.7599 14.386 29.9579 19.112L34.0379 0.547998L28.7339 2.248V2.316C30.0599 3.404 29.8899 5.24 29.4479 7.314L26.5919 20.642C25.9459 23.532 25.4699 25.436 24.6879 26.932V27H29.2779V26.932C28.9719 25.436 29.0739 24.11 29.5159 21.968L29.5839 21.594C32.0319 15.916 33.7659 12.89 35.7039 12.89C36.9619 12.89 37.2339 14.114 36.8599 15.848ZM53.9618 27.51C56.5798 27.51 58.8578 25.776 60.0478 22.478L59.8778 22.308C58.7898 24.246 57.3278 24.994 55.8658 24.994C54.1658 24.994 52.6358 23.94 52.6358 20.268C52.6358 19.01 52.8058 17.82 53.1118 16.664C59.7758 16.562 62.0538 14.726 62.0538 12.686C62.0538 10.68 59.7758 10.272 58.5178 10.272C53.5198 10.272 49.0998 15.814 49.0998 21.56C49.0998 25.402 51.0038 27.51 53.9618 27.51ZM58.1778 10.884C58.9938 10.884 59.4018 11.292 59.4018 12.142C59.4018 13.298 58.5518 15.406 53.2478 16.324C54.2338 13.162 56.2398 10.884 58.1778 10.884ZM91.2192 20.438L89.4512 27.306L94.7552 26.66V26.592C92.9192 25.878 92.9872 24.858 93.7012 22.24L96.7952 10.272H96.5572L95.2312 10.816C94.3812 10.442 93.3272 10.272 92.1032 10.272C85.7452 10.272 81.4612 17.004 81.4612 22.58C81.4612 25.674 82.7532 27.51 84.7592 27.51C87.3772 27.51 89.5872 24.212 91.2192 20.438ZM86.4252 25.028C85.9152 25.028 84.8952 24.756 84.8952 22.036C84.8952 17.718 87.6492 11.054 91.5252 11.054C92.3412 11.054 92.9532 11.292 93.2592 12.006L91.8652 17.208C90.4032 20.778 88.4652 25.028 86.4252 25.028ZM103.791 26.932V27H108.381V26.932C108.075 25.436 108.177 24.11 108.687 21.968L108.755 21.594C110.931 16.766 112.291 14.216 114.059 14.216C114.297 14.216 114.569 14.284 114.807 14.454H114.943L116.405 10.272C113.345 10.272 110.727 15.338 108.823 20.03L110.931 10.102L105.831 11.802V11.87C106.817 12.72 107.055 14.386 106.511 16.868L105.695 20.642C105.049 23.532 104.709 25.198 103.791 26.932ZM125.989 27.51C127.893 27.51 129.763 25.81 131.259 23.09L130.919 22.852C130.205 23.838 128.811 25.266 127.723 25.266C127.077 25.266 126.703 24.824 127.145 22.818L129.559 11.462H133.503L133.639 10.782H129.695L130.477 7.144H130.171L124.561 11.19V11.462H126.329L123.881 22.784C123.133 26.456 124.425 27.51 125.989 27.51ZM166.467 16.426C166.467 12.618 164.699 10.272 161.299 10.272C157.049 10.272 152.459 15.814 152.459 21.39C152.459 25.164 154.227 27.51 157.627 27.51C161.877 27.51 166.467 21.968 166.467 16.426ZM155.689 22.92C155.689 16.562 158.239 10.884 161.231 10.884C162.693 10.884 163.237 12.448 163.237 14.862C163.237 21.22 160.585 26.898 157.729 26.898C156.267 26.898 155.689 25.334 155.689 22.92ZM178.21 11.462L173.756 32.61H176.918L181.372 11.462H184.364L184.5 10.782H181.508L182.324 6.872C183.106 3.098 184.024 1.228 185.044 1.228C185.928 1.228 186.846 2.928 187.968 4.866L188.24 4.798L187.968 0.888C187.594 0.751999 186.914 0.547998 186.064 0.547998C182.97 0.547998 179.876 3.472 178.89 8.266L178.346 10.782H176.204L176.034 11.462H178.21ZM202.336 26.932V27H206.926V26.932C206.62 25.436 206.722 24.11 207.232 21.968L207.3 21.594C209.476 16.766 210.836 14.216 212.604 14.216C212.842 14.216 213.114 14.284 213.352 14.454H213.488L214.95 10.272C211.89 10.272 209.272 15.338 207.368 20.03L209.476 10.102L204.376 11.802V11.87C205.362 12.72 205.6 14.386 205.056 16.868L204.24 20.642C203.594 23.532 203.254 25.198 202.336 26.932ZM225.962 27.51C228.58 27.51 230.858 25.776 232.048 22.478L231.878 22.308C230.79 24.246 229.328 24.994 227.866 24.994C226.166 24.994 224.636 23.94 224.636 20.268C224.636 19.01 224.806 17.82 225.112 16.664C231.776 16.562 234.054 14.726 234.054 12.686C234.054 10.68 231.776 10.272 230.518 10.272C225.52 10.272 221.1 15.814 221.1 21.56C221.1 25.402 223.004 27.51 225.962 27.51ZM230.178 10.884C230.994 10.884 231.402 11.292 231.402 12.142C231.402 13.298 230.552 15.406 225.248 16.324C226.234 13.162 228.24 10.884 230.178 10.884ZM240.305 27H244.895V26.932C244.623 25.402 244.691 24.11 245.405 20.574L249.655 0.547998L244.351 2.248V2.316C245.677 3.404 245.507 5.24 245.065 7.314L242.209 20.642C241.563 23.532 241.087 25.436 240.305 26.932V27ZM265.012 20.438L263.244 27.306L268.548 26.66V26.592C266.712 25.878 266.78 24.858 267.494 22.24L270.588 10.272H270.35L269.024 10.816C268.174 10.442 267.12 10.272 265.896 10.272C259.538 10.272 255.254 17.004 255.254 22.58C255.254 25.674 256.546 27.51 258.552 27.51C261.17 27.51 263.38 24.212 265.012 20.438ZM260.218 25.028C259.708 25.028 258.688 24.756 258.688 22.036C258.688 17.718 261.442 11.054 265.318 11.054C266.134 11.054 266.746 11.292 267.052 12.006L265.658 17.208C264.196 20.778 262.258 25.028 260.218 25.028ZM280.516 27V26.932C279.972 26.116 280.074 24.722 282.012 22.308L283.746 20.2L284.902 23.328C285.718 25.504 285.514 26.354 285.072 26.932V27H290.41V26.932C289.628 26.048 288.948 25.232 288.132 23.056L286.296 18.16L288.846 14.998C290.376 12.992 291.43 12.108 293.164 10.85V10.782H288.812V10.85C289.73 11.53 289.322 13.162 287.452 15.474L285.99 17.344L284.936 14.488C284.154 12.312 284.426 11.156 284.936 10.85V10.782H279.53V10.85C280.312 11.666 280.924 12.618 281.74 14.76L283.44 19.35L280.652 22.784C279.02 24.688 277.932 25.742 276.164 26.932V27H280.516ZM308.762 20.438L306.994 27.306L312.298 26.66V26.592C310.462 25.878 310.53 24.858 311.244 22.24L314.338 10.272H314.1L312.774 10.816C311.924 10.442 310.87 10.272 309.646 10.272C303.288 10.272 299.004 17.004 299.004 22.58C299.004 25.674 300.296 27.51 302.302 27.51C304.92 27.51 307.13 24.212 308.762 20.438ZM303.968 25.028C303.458 25.028 302.438 24.756 302.438 22.036C302.438 17.718 305.192 11.054 309.068 11.054C309.884 11.054 310.496 11.292 310.802 12.006L309.408 17.208C307.946 20.778 306.008 25.028 303.968 25.028ZM325.21 27.51C327.114 27.51 328.984 25.81 330.48 23.09L330.14 22.852C329.426 23.838 328.032 25.266 326.944 25.266C326.298 25.266 325.924 24.824 326.366 22.818L328.78 11.462H332.724L332.86 10.782H328.916L329.698 7.144H329.392L323.782 11.19V11.462H325.55L323.102 22.784C322.354 26.456 323.646 27.51 325.21 27.51ZM347.454 4.628C347.454 3.506 346.57 2.588 345.448 2.588C344.36 2.588 343.442 3.506 343.442 4.628C343.442 5.716 344.36 6.634 345.448 6.634C346.57 6.634 347.454 5.716 347.454 4.628ZM339.124 26.932V27H343.748V26.932C343.476 25.47 343.578 24.076 344.292 20.642L346.536 10.102L341.164 11.802V11.87C342.15 12.652 342.388 14.318 341.878 16.868L341.062 20.642C340.416 23.532 340.11 25.334 339.124 26.932ZM368.112 16.426C368.112 12.618 366.344 10.272 362.944 10.272C358.694 10.272 354.104 15.814 354.104 21.39C354.104 25.164 355.872 27.51 359.272 27.51C363.522 27.51 368.112 21.968 368.112 16.426ZM357.334 22.92C357.334 16.562 359.884 10.884 362.876 10.884C364.338 10.884 364.882 12.448 364.882 14.862C364.882 21.22 362.23 26.898 359.374 26.898C357.912 26.898 357.334 25.334 357.334 22.92ZM387.943 15.848L385.393 27.306L390.799 26.796V26.728C388.895 26.354 389.133 25.198 389.779 22.206L391.173 15.644C391.887 12.108 390.629 10.272 388.589 10.272C385.461 10.272 382.809 14.454 381.007 19.18L382.945 10.102L377.709 11.802V11.87C378.729 12.686 378.967 14.352 378.423 16.868L377.607 20.642C377.063 23.532 376.621 25.164 375.703 26.932V27H380.293V26.932C379.987 25.436 380.157 24.11 380.599 21.968L380.667 21.594C383.115 15.916 384.849 12.89 386.787 12.89C388.011 12.89 388.317 14.114 387.943 15.848Z" fill="#DB8B5A"/>
</svg>
